<svg xmlns="http://www.w3.org/2000/svg" xmlns:xlink="http://www.w3.org/1999/xlink" contentStyleType="text/css" height="633px" preserveAspectRatio="none" style="width:413px;height:633px;background:#FFFFFF;" version="1.1" viewBox="0 0 413 633" width="413px" zoomAndPan="magnify"><defs/><g><line style="stroke:#181818;stroke-width:0.5;stroke-dasharray:5.0,5.0;" x1="32" x2="32" y1="36.2969" y2="598.4219"/><line style="stroke:#181818;stroke-width:0.5;stroke-dasharray:5.0,5.0;" x1="370.3696" x2="370.3696" y1="36.2969" y2="598.4219"/><rect fill="#E2E2F0" height="30.2969" rx="2.5" ry="2.5" style="stroke:#181818;stroke-width:0.5;" width="54.5303" x="5" y="5"/><text fill="#000000" font-family="sans-serif" font-size="14" lengthAdjust="spacing" textLength="40.5303" x="12" y="24.9951">Client</text><rect fill="#E2E2F0" height="30.2969" rx="2.5" ry="2.5" style="stroke:#181818;stroke-width:0.5;" width="54.5303" x="5" y="597.4219"/><text fill="#000000" font-family="sans-serif" font-size="14" lengthAdjust="spacing" textLength="40.5303" x="12" y="617.417">Client</text><rect fill="#E2E2F0" height="30.2969" rx="2.5" ry="2.5" style="stroke:#181818;stroke-width:0.5;" width="59.9102" x="341.3696" y="5"/><text fill="#000000" font-family="sans-serif" font-size="14" lengthAdjust="spacing" textLength="45.9102" x="348.3696" y="24.9951">Server</text><rect fill="#E2E2F0" height="30.2969" rx="2.5" ry="2.5" style="stroke:#181818;stroke-width:0.5;" width="59.9102" x="341.3696" y="597.4219"/><text fill="#000000" font-family="sans-serif" font-size="14" lengthAdjust="spacing" textLength="45.9102" x="348.3696" y="617.417">Server</text><rect fill="#EEEEEE" height="3" style="stroke:#EEEEEE;stroke-width:1;" width="406.2798" x="0" y="66.8633"/><line style="stroke:#000000;stroke-width:1;" x1="0" x2="406.2798" y1="66.8633" y2="66.8633"/><line style="stroke:#000000;stroke-width:1;" x1="0" x2="406.2798" y1="69.8633" y2="69.8633"/><rect fill="#EEEEEE" height="23.1328" style="stroke:#000000;stroke-width:2;" width="209.9966" x="98.1416" y="56.2969"/><text fill="#000000" font-family="sans-serif" font-size="13" font-weight="bold" lengthAdjust="spacing" textLength="191.4707" x="104.1416" y="72.3638">Connection establishment</text><polygon fill="#181818" points="359.3247,106.5625,369.3247,110.5625,359.3247,114.5625,363.3247,110.5625" style="stroke:#181818;stroke-width:1;"/><line style="stroke:#181818;stroke-width:1;" x1="32.2651" x2="365.3247" y1="110.5625" y2="110.5625"/><text fill="#000000" font-family="sans-serif" font-size="13" lengthAdjust="spacing" textLength="213.6748" x="39.2651" y="105.4966">CONNECT alice alice@email.com</text><polygon fill="#181818" points="43.2651,135.6953,33.2651,139.6953,43.2651,143.6953,39.2651,139.6953" style="stroke:#181818;stroke-width:1;"/><line style="stroke:#181818;stroke-width:1;stroke-dasharray:2.0,2.0;" x1="37.2651" x2="370.3247" y1="139.6953" y2="139.6953"/><text fill="#000000" font-family="sans-serif" font-size="13" lengthAdjust="spacing" textLength="173.9131" x="49.2651" y="134.6294">200 Connection successful</text><rect fill="#EEEEEE" height="3" style="stroke:#EEEEEE;stroke-width:1;" width="406.2798" x="0" y="168.2617"/><line style="stroke:#000000;stroke-width:1;" x1="0" x2="406.2798" y1="168.2617" y2="168.2617"/><line style="stroke:#000000;stroke-width:1;" x1="0" x2="406.2798" y1="171.2617" y2="171.2617"/><rect fill="#EEEEEE" height="23.1328" style="stroke:#000000;stroke-width:2;" width="111.3794" x="147.4502" y="157.6953"/><text fill="#000000" font-family="sans-serif" font-size="13" font-weight="bold" lengthAdjust="spacing" textLength="92.8535" x="153.4502" y="173.7622">Initial listing</text><polygon fill="#181818" points="359.3247,207.9609,369.3247,211.9609,359.3247,215.9609,363.3247,211.9609" style="stroke:#181818;stroke-width:1;"/><line style="stroke:#181818;stroke-width:1;" x1="32.2651" x2="365.3247" y1="211.9609" y2="211.9609"/><text fill="#000000" font-family="sans-serif" font-size="13" lengthAdjust="spacing" textLength="27.2695" x="39.2651" y="206.895">LIST</text><polygon fill="#181818" points="43.2651,237.0938,33.2651,241.0938,43.2651,245.0938,39.2651,241.0938" style="stroke:#181818;stroke-width:1;"/><line style="stroke:#181818;stroke-width:1;stroke-dasharray:2.0,2.0;" x1="37.2651" x2="370.3247" y1="241.0938" y2="241.0938"/><text fill="#000000" font-family="sans-serif" font-size="13" lengthAdjust="spacing" textLength="315.0596" x="49.2651" y="236.0278">200 1,video1,description1;2,video2,description2</text><rect fill="#EEEEEE" height="3" style="stroke:#EEEEEE;stroke-width:1;" width="406.2798" x="0" y="269.6602"/><line style="stroke:#000000;stroke-width:1;" x1="0" x2="406.2798" y1="269.6602" y2="269.6602"/><line style="stroke:#000000;stroke-width:1;" x1="0" x2="406.2798" y1="272.6602" y2="272.6602"/><rect fill="#EEEEEE" height="23.1328" style="stroke:#000000;stroke-width:2;" width="80.2632" x="163.0083" y="259.0938"/><text fill="#000000" font-family="sans-serif" font-size="13" font-weight="bold" lengthAdjust="spacing" textLength="61.7373" x="169.0083" y="275.1606">Deletion</text><polygon fill="#181818" points="359.3247,309.3594,369.3247,313.3594,359.3247,317.3594,363.3247,313.3594" style="stroke:#181818;stroke-width:1;"/><line style="stroke:#181818;stroke-width:1;" x1="32.2651" x2="365.3247" y1="313.3594" y2="313.3594"/><text fill="#000000" font-family="sans-serif" font-size="13" lengthAdjust="spacing" textLength="62.2388" x="39.2651" y="308.2935">DELETE 2</text><polygon fill="#181818" points="43.2651,338.4922,33.2651,342.4922,43.2651,346.4922,39.2651,342.4922" style="stroke:#181818;stroke-width:1;"/><line style="stroke:#181818;stroke-width:1;stroke-dasharray:2.0,2.0;" x1="37.2651" x2="370.3247" y1="342.4922" y2="342.4922"/><text fill="#000000" font-family="sans-serif" font-size="13" lengthAdjust="spacing" textLength="118.9932" x="49.2651" y="337.4263">200 Video deleted</text><rect fill="#EEEEEE" height="3" style="stroke:#EEEEEE;stroke-width:1;" width="406.2798" x="0" y="371.0586"/><line style="stroke:#000000;stroke-width:1;" x1="0" x2="406.2798" y1="371.0586" y2="371.0586"/><line style="stroke:#000000;stroke-width:1;" x1="0" x2="406.2798" y1="374.0586" y2="374.0586"/><rect fill="#EEEEEE" height="23.1328" style="stroke:#000000;stroke-width:2;" width="131.2095" x="137.5352" y="360.4922"/><text fill="#000000" font-family="sans-serif" font-size="13" font-weight="bold" lengthAdjust="spacing" textLength="112.6836" x="143.5352" y="376.5591">Updated listing</text><polygon fill="#181818" points="359.3247,410.7578,369.3247,414.7578,359.3247,418.7578,363.3247,414.7578" style="stroke:#181818;stroke-width:1;"/><line style="stroke:#181818;stroke-width:1;" x1="32.2651" x2="365.3247" y1="414.7578" y2="414.7578"/><text fill="#000000" font-family="sans-serif" font-size="13" lengthAdjust="spacing" textLength="27.2695" x="39.2651" y="409.6919">LIST</text><polygon fill="#181818" points="43.2651,439.8906,33.2651,443.8906,43.2651,447.8906,39.2651,443.8906" style="stroke:#181818;stroke-width:1;"/><line style="stroke:#181818;stroke-width:1;stroke-dasharray:2.0,2.0;" x1="37.2651" x2="370.3247" y1="443.8906" y2="443.8906"/><text fill="#000000" font-family="sans-serif" font-size="13" lengthAdjust="spacing" textLength="169.8125" x="49.2651" y="438.8247">200 1,video1,description1</text><rect fill="#EEEEEE" height="3" style="stroke:#EEEEEE;stroke-width:1;" width="406.2798" x="0" y="472.457"/><line style="stroke:#000000;stroke-width:1;" x1="0" x2="406.2798" y1="472.457" y2="472.457"/><line style="stroke:#000000;stroke-width:1;" x1="0" x2="406.2798" y1="475.457" y2="475.457"/><rect fill="#EEEEEE" height="23.1328" style="stroke:#000000;stroke-width:2;" width="122.0371" x="142.1213" y="461.8906"/><text fill="#000000" font-family="sans-serif" font-size="13" font-weight="bold" lengthAdjust="spacing" textLength="103.5112" x="148.1213" y="477.9575">Disconnection</text><polygon fill="#181818" points="359.3247,512.1563,369.3247,516.1563,359.3247,520.1563,363.3247,516.1563" style="stroke:#181818;stroke-width:1;"/><line style="stroke:#181818;stroke-width:1;" x1="32.2651" x2="365.3247" y1="516.1563" y2="516.1563"/><text fill="#000000" font-family="sans-serif" font-size="13" lengthAdjust="spacing" textLength="31.5225" x="39.2651" y="511.0903">QUIT</text><polygon fill="#181818" points="43.2651,541.2891,33.2651,545.2891,43.2651,549.2891,39.2651,545.2891" style="stroke:#181818;stroke-width:1;"/><line style="stroke:#181818;stroke-width:1;stroke-dasharray:2.0,2.0;" x1="37.2651" x2="370.3247" y1="545.2891" y2="545.2891"/><text fill="#000000" font-family="sans-serif" font-size="13" lengthAdjust="spacing" textLength="129.8477" x="49.2651" y="540.2231">200 See you soon :)</text><path d="M6,558.2891 L6,583.2891 L397,583.2891 L397,568.2891 L387,558.2891 L6,558.2891 " fill="#FEFFDD" style="stroke:#181818;stroke-width:0.5;"/><path d="M387,558.2891 L387,568.2891 L397,568.2891 L387,558.2891 " fill="#FEFFDD" style="stroke:#181818;stroke-width:0.5;"/><text fill="#000000" font-family="sans-serif" font-size="13" lengthAdjust="spacing" textLength="150.3442" x="121.9678" y="575.356">TCP Connection Closed</text><!--SRC=[hP6zQiCm54PtFSLT2qw9DRgu51GFXf2asEckIZVj1LaobXpesrUsMkh1the8SVc-S_JJoo6GebxQ0C8Gsi3wnQZ1uOu3OsK9mbcBAf2pW3x8TqF-iujvA4kMch1x_YaK8CwdKoLQa8OKflK5EqdcKRcEfHJiOY5L2-3x_LBXHwNG-zjePdbjAP0q4AM1xCUwyrWtxHOwp-waqUMPHgy6wYT9_iJJb2-dV1OUqE1ya5NJeJfMRGLyo_OsKK5F3DGpxzfh6VV_V85qLFBgx-5MmQ_NUXFS8CAN6y6xs2uUc7K1mKt9bCf-8QsuB7z86ETHVmC0]--></g></svg>