<svg xmlns="http://www.w3.org/2000/svg" xmlns:xlink="http://www.w3.org/1999/xlink" contentStyleType="text/css" height="1130px" preserveAspectRatio="none" style="width:804px;height:1130px;background:#FFFFFF;" version="1.1" viewBox="0 0 804 1130" width="804px" zoomAndPan="magnify"><defs/><g><rect fill="none" height="81.3984" style="stroke:#000000;stroke-width:1.5;" width="777.0171" x="10" y="430.8906"/><line style="stroke:#181818;stroke-width:0.5;stroke-dasharray:5.0,5.0;" x1="47" x2="47" y1="36.2969" y2="1095.6797"/><line style="stroke:#181818;stroke-width:0.5;stroke-dasharray:5.0,5.0;" x1="746.1069" x2="746.1069" y1="36.2969" y2="1095.6797"/><rect fill="#E2E2F0" height="30.2969" rx="2.5" ry="2.5" style="stroke:#181818;stroke-width:0.5;" width="54.5303" x="20" y="5"/><text fill="#000000" font-family="sans-serif" font-size="14" lengthAdjust="spacing" textLength="40.5303" x="27" y="24.9951">Client</text><rect fill="#E2E2F0" height="30.2969" rx="2.5" ry="2.5" style="stroke:#181818;stroke-width:0.5;" width="54.5303" x="20" y="1094.6797"/><text fill="#000000" font-family="sans-serif" font-size="14" lengthAdjust="spacing" textLength="40.5303" x="27" y="1114.6748">Client</text><rect fill="#E2E2F0" height="30.2969" rx="2.5" ry="2.5" style="stroke:#181818;stroke-width:0.5;" width="59.9102" x="717.1069" y="5"/><text fill="#000000" font-family="sans-serif" font-size="14" lengthAdjust="spacing" textLength="45.9102" x="724.1069" y="24.9951">Server</text><rect fill="#E2E2F0" height="30.2969" rx="2.5" ry="2.5" style="stroke:#181818;stroke-width:0.5;" width="59.9102" x="717.1069" y="1094.6797"/><text fill="#000000" font-family="sans-serif" font-size="14" lengthAdjust="spacing" textLength="45.9102" x="724.1069" y="1114.6748">Server</text><rect fill="#EEEEEE" height="3" style="stroke:#EEEEEE;stroke-width:1;" width="797.0171" x="0" y="66.8633"/><line style="stroke:#000000;stroke-width:1;" x1="0" x2="797.0171" y1="66.8633" y2="66.8633"/><line style="stroke:#000000;stroke-width:1;" x1="0" x2="797.0171" y1="69.8633" y2="69.8633"/><rect fill="#EEEEEE" height="23.1328" style="stroke:#000000;stroke-width:2;" width="99.1284" x="348.9443" y="56.2969"/><text fill="#000000" font-family="sans-serif" font-size="13" font-weight="bold" lengthAdjust="spacing" textLength="80.6025" x="354.9443" y="72.3638">Arguments</text><polygon fill="#181818" points="735.062,106.5625,745.062,110.5625,735.062,114.5625,739.062,110.5625" style="stroke:#181818;stroke-width:1;"/><line style="stroke:#181818;stroke-width:1;" x1="47.2651" x2="741.062" y1="110.5625" y2="110.5625"/><text fill="#000000" font-family="sans-serif" font-size="13" lengthAdjust="spacing" textLength="63.9907" x="54.2651" y="105.4966">CONNECT</text><polygon fill="#181818" points="58.2651,135.6953,48.2651,139.6953,58.2651,143.6953,54.2651,139.6953" style="stroke:#181818;stroke-width:1;"/><line style="stroke:#181818;stroke-width:1;stroke-dasharray:2.0,2.0;" x1="52.2651" x2="746.062" y1="139.6953" y2="139.6953"/><text fill="#000000" font-family="sans-serif" font-size="13" lengthAdjust="spacing" textLength="675.7969" x="64.2651" y="134.6294">500 The connect command expects exactly two arguments (Command: CONNECT &lt;pseudo&gt; &lt;email&gt;)</text><polygon fill="#181818" points="735.062,164.8281,745.062,168.8281,735.062,172.8281,739.062,168.8281" style="stroke:#181818;stroke-width:1;"/><line style="stroke:#181818;stroke-width:1;" x1="47.2651" x2="741.062" y1="168.8281" y2="168.8281"/><text fill="#000000" font-family="sans-serif" font-size="13" lengthAdjust="spacing" textLength="275.3169" x="54.2651" y="163.7622">CONNECT user1 email@test.com extraArg</text><polygon fill="#181818" points="58.2651,193.9609,48.2651,197.9609,58.2651,201.9609,54.2651,197.9609" style="stroke:#181818;stroke-width:1;"/><line style="stroke:#181818;stroke-width:1;stroke-dasharray:2.0,2.0;" x1="52.2651" x2="746.062" y1="197.9609" y2="197.9609"/><text fill="#000000" font-family="sans-serif" font-size="13" lengthAdjust="spacing" textLength="675.7969" x="64.2651" y="192.895">500 The connect command expects exactly two arguments (Command: CONNECT &lt;pseudo&gt; &lt;email&gt;)</text><polygon fill="#181818" points="735.062,223.0938,745.062,227.0938,735.062,231.0938,739.062,227.0938" style="stroke:#181818;stroke-width:1;"/><line style="stroke:#181818;stroke-width:1;" x1="47.2651" x2="741.062" y1="227.0938" y2="227.0938"/><text fill="#000000" font-family="sans-serif" font-size="13" lengthAdjust="spacing" textLength="49.8354" x="54.2651" y="222.0278">DELETE</text><polygon fill="#181818" points="58.2651,252.2266,48.2651,256.2266,58.2651,260.2266,54.2651,256.2266" style="stroke:#181818;stroke-width:1;"/><line style="stroke:#181818;stroke-width:1;stroke-dasharray:2.0,2.0;" x1="52.2651" x2="746.062" y1="256.2266" y2="256.2266"/><text fill="#000000" font-family="sans-serif" font-size="13" lengthAdjust="spacing" textLength="614.8086" x="64.2651" y="251.1606">500 The delete command expects exactly one argument (Command: DELETE &lt;videoChoice&gt;)</text><polygon fill="#181818" points="735.062,281.3594,745.062,285.3594,735.062,289.3594,739.062,285.3594" style="stroke:#181818;stroke-width:1;"/><line style="stroke:#181818;stroke-width:1;" x1="47.2651" x2="741.062" y1="285.3594" y2="285.3594"/><text fill="#000000" font-family="sans-serif" font-size="13" lengthAdjust="spacing" textLength="79.1997" x="54.2651" y="280.2935">DOWNLOAD</text><polygon fill="#181818" points="58.2651,310.4922,48.2651,314.4922,58.2651,318.4922,54.2651,314.4922" style="stroke:#181818;stroke-width:1;"/><line style="stroke:#181818;stroke-width:1;stroke-dasharray:2.0,2.0;" x1="52.2651" x2="746.062" y1="314.4922" y2="314.4922"/><text fill="#000000" font-family="sans-serif" font-size="13" lengthAdjust="spacing" textLength="666.0786" x="64.2651" y="309.4263">500 The download command expects exactly one argument (Command: DOWNLOAD &lt;videoChoice&gt;)</text><rect fill="#EEEEEE" height="3" style="stroke:#EEEEEE;stroke-width:1;" width="797.0171" x="0" y="343.0586"/><line style="stroke:#000000;stroke-width:1;" x1="0" x2="797.0171" y1="343.0586" y2="343.0586"/><line style="stroke:#000000;stroke-width:1;" x1="0" x2="797.0171" y1="346.0586" y2="346.0586"/><rect fill="#EEEEEE" height="23.1328" style="stroke:#000000;stroke-width:2;" width="142.5591" x="327.229" y="332.4922"/><text fill="#000000" font-family="sans-serif" font-size="13" font-weight="bold" lengthAdjust="spacing" textLength="124.0332" x="333.229" y="348.5591">File Upload Error</text><polygon fill="#181818" points="735.062,382.7578,745.062,386.7578,735.062,390.7578,739.062,386.7578" style="stroke:#181818;stroke-width:1;"/><line style="stroke:#181818;stroke-width:1;" x1="47.2651" x2="741.062" y1="386.7578" y2="386.7578"/><text fill="#000000" font-family="sans-serif" font-size="13" lengthAdjust="spacing" textLength="267.8584" x="54.2651" y="381.6919">UPLOAD dGVzdA== ZGVzY3JpcHRpb24=</text><polygon fill="#181818" points="58.2651,411.8906,48.2651,415.8906,58.2651,419.8906,54.2651,415.8906" style="stroke:#181818;stroke-width:1;"/><line style="stroke:#181818;stroke-width:1;stroke-dasharray:2.0,2.0;" x1="52.2651" x2="746.062" y1="415.8906" y2="415.8906"/><text fill="#000000" font-family="sans-serif" font-size="13" lengthAdjust="spacing" textLength="178.6357" x="64.2651" y="410.8247">200 Ready to receive video</text><path d="M10,430.8906 L86.624,430.8906 L86.624,438.0234 L76.624,448.0234 L10,448.0234 L10,430.8906 " fill="#EEEEEE" style="stroke:#000000;stroke-width:1.5;"/><rect fill="none" height="81.3984" style="stroke:#000000;stroke-width:1.5;" width="777.0171" x="10" y="430.8906"/><text fill="#000000" font-family="sans-serif" font-size="13" font-weight="bold" lengthAdjust="spacing" textLength="31.624" x="25" y="443.9575">loop</text><text fill="#000000" font-family="sans-serif" font-size="11" font-weight="bold" lengthAdjust="spacing" textLength="95.1274" x="101.624" y="443.1011">[Failed Upload]</text><polygon fill="#181818" points="735.062,465.1563,745.062,469.1563,735.062,473.1563,739.062,469.1563" style="stroke:#181818;stroke-width:1;"/><line style="stroke:#181818;stroke-width:1;" x1="47.2651" x2="741.062" y1="469.1563" y2="469.1563"/><text fill="#000000" font-family="sans-serif" font-size="13" lengthAdjust="spacing" textLength="158.4692" x="54.2651" y="464.0903">Base64 encoded chunks</text><path d="M21,482.1563 L21,507.1563 L773,507.1563 L773,492.1563 L763,482.1563 L21,482.1563 " fill="#FEFFDD" style="stroke:#181818;stroke-width:0.5;"/><path d="M763,482.1563 L763,492.1563 L773,492.1563 L763,482.1563 " fill="#FEFFDD" style="stroke:#181818;stroke-width:0.5;"/><text fill="#000000" font-family="sans-serif" font-size="13" lengthAdjust="spacing" textLength="195.603" x="294.707" y="499.2231">Connection lost during upload</text><polygon fill="#181818" points="58.2651,536.4219,48.2651,540.4219,58.2651,544.4219,54.2651,540.4219" style="stroke:#181818;stroke-width:1;"/><line style="stroke:#181818;stroke-width:1;stroke-dasharray:2.0,2.0;" x1="52.2651" x2="746.062" y1="540.4219" y2="540.4219"/><text fill="#000000" font-family="sans-serif" font-size="13" lengthAdjust="spacing" textLength="326.936" x="64.2651" y="535.356">500 Error while uploading video: Connection reset</text><rect fill="#EEEEEE" height="3" style="stroke:#EEEEEE;stroke-width:1;" width="797.0171" x="0" y="568.9883"/><line style="stroke:#000000;stroke-width:1;" x1="0" x2="797.0171" y1="568.9883" y2="568.9883"/><line style="stroke:#000000;stroke-width:1;" x1="0" x2="797.0171" y1="571.9883" y2="571.9883"/><rect fill="#EEEEEE" height="23.1328" style="stroke:#000000;stroke-width:2;" width="174.6719" x="311.1726" y="558.4219"/><text fill="#000000" font-family="sans-serif" font-size="13" font-weight="bold" lengthAdjust="spacing" textLength="156.146" x="317.1726" y="574.4888">Invalid Format Errors</text><polygon fill="#181818" points="735.062,608.6875,745.062,612.6875,735.062,616.6875,739.062,612.6875" style="stroke:#181818;stroke-width:1;"/><line style="stroke:#181818;stroke-width:1;" x1="47.2651" x2="741.062" y1="612.6875" y2="612.6875"/><text fill="#000000" font-family="sans-serif" font-size="13" lengthAdjust="spacing" textLength="187.7192" x="54.2651" y="607.6216">CONNECT user1 invalidemail</text><polygon fill="#181818" points="58.2651,637.8203,48.2651,641.8203,58.2651,645.8203,54.2651,641.8203" style="stroke:#181818;stroke-width:1;"/><line style="stroke:#181818;stroke-width:1;stroke-dasharray:2.0,2.0;" x1="52.2651" x2="746.062" y1="641.8203" y2="641.8203"/><text fill="#000000" font-family="sans-serif" font-size="13" lengthAdjust="spacing" textLength="167.6289" x="64.2651" y="636.7544">500 Invalid email address</text><polygon fill="#181818" points="735.062,666.9531,745.062,670.9531,735.062,674.9531,739.062,670.9531" style="stroke:#181818;stroke-width:1;"/><line style="stroke:#181818;stroke-width:1;" x1="47.2651" x2="741.062" y1="670.9531" y2="670.9531"/><text fill="#000000" font-family="sans-serif" font-size="13" lengthAdjust="spacing" textLength="96.2939" x="54.2651" y="665.8872">DOWNLOAD -2</text><polygon fill="#181818" points="58.2651,696.0859,48.2651,700.0859,58.2651,704.0859,54.2651,700.0859" style="stroke:#181818;stroke-width:1;"/><line style="stroke:#181818;stroke-width:1;stroke-dasharray:2.0,2.0;" x1="52.2651" x2="746.062" y1="700.0859" y2="700.0859"/><text fill="#000000" font-family="sans-serif" font-size="13" lengthAdjust="spacing" textLength="221.4761" x="64.2651" y="695.02">500 Invalid/unknown video choice</text><polygon fill="#181818" points="735.062,725.2188,745.062,729.2188,735.062,733.2188,739.062,729.2188" style="stroke:#181818;stroke-width:1;"/><line style="stroke:#181818;stroke-width:1;" x1="47.2651" x2="741.062" y1="729.2188" y2="729.2188"/><text fill="#000000" font-family="sans-serif" font-size="13" lengthAdjust="spacing" textLength="106.6978" x="54.2651" y="724.1528">DOWNLOAD abc</text><polygon fill="#181818" points="58.2651,754.3516,48.2651,758.3516,58.2651,762.3516,54.2651,758.3516" style="stroke:#181818;stroke-width:1;"/><line style="stroke:#181818;stroke-width:1;stroke-dasharray:2.0,2.0;" x1="52.2651" x2="746.062" y1="758.3516" y2="758.3516"/><text fill="#000000" font-family="sans-serif" font-size="13" lengthAdjust="spacing" textLength="221.4761" x="64.2651" y="753.2856">500 Invalid/unknown video choice</text><polygon fill="#181818" points="735.062,783.4844,745.062,787.4844,735.062,791.4844,739.062,787.4844" style="stroke:#181818;stroke-width:1;"/><line style="stroke:#181818;stroke-width:1;" x1="47.2651" x2="741.062" y1="787.4844" y2="787.4844"/><text fill="#000000" font-family="sans-serif" font-size="13" lengthAdjust="spacing" textLength="295.4263" x="54.2651" y="782.4185">UPLOAD invalidBase64 anotherInvalidBase64</text><polygon fill="#181818" points="58.2651,812.6172,48.2651,816.6172,58.2651,820.6172,54.2651,816.6172" style="stroke:#181818;stroke-width:1;"/><line style="stroke:#181818;stroke-width:1;stroke-dasharray:2.0,2.0;" x1="52.2651" x2="746.062" y1="816.6172" y2="816.6172"/><text fill="#000000" font-family="sans-serif" font-size="13" lengthAdjust="spacing" textLength="188.3096" x="64.2651" y="811.5513">500 Invalid Base64 encoding</text><rect fill="#EEEEEE" height="3" style="stroke:#EEEEEE;stroke-width:1;" width="797.0171" x="0" y="845.1836"/><line style="stroke:#000000;stroke-width:1;" x1="0" x2="797.0171" y1="845.1836" y2="845.1836"/><line style="stroke:#000000;stroke-width:1;" x1="0" x2="797.0171" y1="848.1836" y2="848.1836"/><rect fill="#EEEEEE" height="23.1328" style="stroke:#000000;stroke-width:2;" width="256.7915" x="270.1128" y="834.6172"/><text fill="#000000" font-family="sans-serif" font-size="13" font-weight="bold" lengthAdjust="spacing" textLength="238.2656" x="276.1128" y="850.6841">Resource Access Error - UPLOAD</text><polygon fill="#181818" points="735.062,884.8828,745.062,888.8828,735.062,892.8828,739.062,888.8828" style="stroke:#181818;stroke-width:1;"/><line style="stroke:#181818;stroke-width:1;" x1="47.2651" x2="741.062" y1="888.8828" y2="888.8828"/><text fill="#000000" font-family="sans-serif" font-size="13" lengthAdjust="spacing" textLength="267.8584" x="54.2651" y="883.8169">UPLOAD dGVzdA== ZGVzY3JpcHRpb24=</text><polygon fill="#181818" points="58.2651,914.0156,48.2651,918.0156,58.2651,922.0156,54.2651,918.0156" style="stroke:#181818;stroke-width:1;"/><line style="stroke:#181818;stroke-width:1;stroke-dasharray:2.0,2.0;" x1="52.2651" x2="746.062" y1="918.0156" y2="918.0156"/><text fill="#000000" font-family="sans-serif" font-size="13" lengthAdjust="spacing" textLength="178.6357" x="64.2651" y="912.9497">200 Ready to receive video</text><polygon fill="#181818" points="735.062,943.1484,745.062,947.1484,735.062,951.1484,739.062,947.1484" style="stroke:#181818;stroke-width:1;"/><line style="stroke:#181818;stroke-width:1;" x1="47.2651" x2="741.062" y1="947.1484" y2="947.1484"/><text fill="#000000" font-family="sans-serif" font-size="13" lengthAdjust="spacing" textLength="112.3916" x="54.2651" y="942.0825">END_OF_UPLOAD</text><polygon fill="#181818" points="58.2651,972.2813,48.2651,976.2813,58.2651,980.2813,54.2651,976.2813" style="stroke:#181818;stroke-width:1;"/><line style="stroke:#181818;stroke-width:1;stroke-dasharray:2.0,2.0;" x1="52.2651" x2="746.062" y1="976.2813" y2="976.2813"/><text fill="#000000" font-family="sans-serif" font-size="13" lengthAdjust="spacing" textLength="418.8247" x="64.2651" y="971.2153">500 Error while uploading video: Cannot write to video directory</text><rect fill="#EEEEEE" height="3" style="stroke:#EEEEEE;stroke-width:1;" width="797.0171" x="0" y="1004.8477"/><line style="stroke:#000000;stroke-width:1;" x1="0" x2="797.0171" y1="1004.8477" y2="1004.8477"/><line style="stroke:#000000;stroke-width:1;" x1="0" x2="797.0171" y1="1007.8477" y2="1007.8477"/><rect fill="#EEEEEE" height="23.1328" style="stroke:#000000;stroke-width:2;" width="283.769" x="256.624" y="994.2813"/><text fill="#000000" font-family="sans-serif" font-size="13" font-weight="bold" lengthAdjust="spacing" textLength="265.2432" x="262.624" y="1010.3481">Resource Access Error - DOWNLOAD</text><polygon fill="#181818" points="735.062,1044.5469,745.062,1048.5469,735.062,1052.5469,739.062,1048.5469" style="stroke:#181818;stroke-width:1;"/><line style="stroke:#181818;stroke-width:1;" x1="47.2651" x2="741.062" y1="1048.5469" y2="1048.5469"/><text fill="#000000" font-family="sans-serif" font-size="13" lengthAdjust="spacing" textLength="91.603" x="54.2651" y="1043.481">DOWNLOAD 1</text><polygon fill="#181818" points="58.2651,1073.6797,48.2651,1077.6797,58.2651,1081.6797,54.2651,1077.6797" style="stroke:#181818;stroke-width:1;"/><line style="stroke:#181818;stroke-width:1;stroke-dasharray:2.0,2.0;" x1="52.2651" x2="746.062" y1="1077.6797" y2="1077.6797"/><text fill="#000000" font-family="sans-serif" font-size="13" lengthAdjust="spacing" textLength="409.3286" x="64.2651" y="1072.6138">500 Error while downloading video: File not found or corrupted</text><!--SRC=[nLHTRzCm57tFhxYF857Ook1XQYjAcyBGrABIWU1bykpBOf7uHhRJRlnwRkmqAcgR0Pf4NlBXwtFElUV4fR1UIrqAus6IQpG-ANS-VKAxHfiamo6CxMrLyBg3uJ29fT0RDHNdC5dCv-babSHtwF5IB3g7LoSdiCeG91c3qlEzA8HHW7Sblpg-2-dpU_0R0j6oF9d4iXOQ1gN3Ij481bW8dO-U9iTrGENGda8eVEFH-UVCoapU2cxalwkSffVfAksIeJ17ZqTLaC5MnOw8Y0k3jLP8auoqn2C25b_cbulnj5C2RKnEGlsrY0PxJmQdQAPpXAiomARMagtJT43VrSU0eDvz_gd6lEyRFtnz-Q6KxvVbJVziU4XtdtKlKIZsYC2YHBr621AIdAY46Tk1gc5FWAzzthV2uUipG2D9SQtCAlF3XLf3R0VLd77NipPnCJ2Q3EJaFAZAQdCBLQH1euxDEFQ_oUgHnEfwNn3y6wf5XpvCxyAiHQuLpCWMmaU0xl-n-Gzqt1WIUKpE5ZmKWL2AULrNTg3NVm3h1K_FS8fYKppDEWcTaE96FXPc4w6czSPOmJPcQ2zsFpuqaDrCi4F1YIKwggn464l9Osgyx6r93rhoo9dU9qZdq-l5x3ho_5lgXE41mSPg3ZipnXahpSoUx7rdwws71vjlLq__HDZswDcH5awEMjntglWiub99rbQbH_KB]--></g></svg>