<svg xmlns="http://www.w3.org/2000/svg" xmlns:xlink="http://www.w3.org/1999/xlink" contentStyleType="text/css" height="621px" preserveAspectRatio="none" style="width:443px;height:621px;background:#FFFFFF;" version="1.1" viewBox="0 0 443 621" width="443px" zoomAndPan="magnify"><defs/><g><rect fill="none" height="46.2656" style="stroke:#000000;stroke-width:1.5;" width="416.2798" x="10" y="357.4922"/><line style="stroke:#181818;stroke-width:0.5;stroke-dasharray:5.0,5.0;" x1="47" x2="47" y1="36.2969" y2="586.4219"/><line style="stroke:#181818;stroke-width:0.5;stroke-dasharray:5.0,5.0;" x1="385.3696" x2="385.3696" y1="36.2969" y2="586.4219"/><rect fill="#E2E2F0" height="30.2969" rx="2.5" ry="2.5" style="stroke:#181818;stroke-width:0.5;" width="54.5303" x="20" y="5"/><text fill="#000000" font-family="sans-serif" font-size="14" lengthAdjust="spacing" textLength="40.5303" x="27" y="24.9951">Client</text><rect fill="#E2E2F0" height="30.2969" rx="2.5" ry="2.5" style="stroke:#181818;stroke-width:0.5;" width="54.5303" x="20" y="585.4219"/><text fill="#000000" font-family="sans-serif" font-size="14" lengthAdjust="spacing" textLength="40.5303" x="27" y="605.417">Client</text><rect fill="#E2E2F0" height="30.2969" rx="2.5" ry="2.5" style="stroke:#181818;stroke-width:0.5;" width="59.9102" x="356.3696" y="5"/><text fill="#000000" font-family="sans-serif" font-size="14" lengthAdjust="spacing" textLength="45.9102" x="363.3696" y="24.9951">Server</text><rect fill="#E2E2F0" height="30.2969" rx="2.5" ry="2.5" style="stroke:#181818;stroke-width:0.5;" width="59.9102" x="356.3696" y="585.4219"/><text fill="#000000" font-family="sans-serif" font-size="14" lengthAdjust="spacing" textLength="45.9102" x="363.3696" y="605.417">Server</text><rect fill="#EEEEEE" height="3" style="stroke:#EEEEEE;stroke-width:1;" width="436.2798" x="0" y="66.8633"/><line style="stroke:#000000;stroke-width:1;" x1="0" x2="436.2798" y1="66.8633" y2="66.8633"/><line style="stroke:#000000;stroke-width:1;" x1="0" x2="436.2798" y1="69.8633" y2="69.8633"/><rect fill="#EEEEEE" height="23.1328" style="stroke:#000000;stroke-width:2;" width="209.9966" x="113.1416" y="56.2969"/><text fill="#000000" font-family="sans-serif" font-size="13" font-weight="bold" lengthAdjust="spacing" textLength="191.4707" x="119.1416" y="72.3638">Connection establishment</text><polygon fill="#181818" points="374.3247,106.5625,384.3247,110.5625,374.3247,114.5625,378.3247,110.5625" style="stroke:#181818;stroke-width:1;"/><line style="stroke:#181818;stroke-width:1;" x1="47.2651" x2="380.3247" y1="110.5625" y2="110.5625"/><text fill="#000000" font-family="sans-serif" font-size="13" lengthAdjust="spacing" textLength="209.0918" x="54.2651" y="105.4966">CONNECT john john@email.com</text><polygon fill="#181818" points="58.2651,135.6953,48.2651,139.6953,58.2651,143.6953,54.2651,139.6953" style="stroke:#181818;stroke-width:1;"/><line style="stroke:#181818;stroke-width:1;stroke-dasharray:2.0,2.0;" x1="52.2651" x2="385.3247" y1="139.6953" y2="139.6953"/><text fill="#000000" font-family="sans-serif" font-size="13" lengthAdjust="spacing" textLength="173.9131" x="64.2651" y="134.6294">200 Connection successful</text><rect fill="#EEEEEE" height="3" style="stroke:#EEEEEE;stroke-width:1;" width="436.2798" x="0" y="168.2617"/><line style="stroke:#000000;stroke-width:1;" x1="0" x2="436.2798" y1="168.2617" y2="168.2617"/><line style="stroke:#000000;stroke-width:1;" x1="0" x2="436.2798" y1="171.2617" y2="171.2617"/><rect fill="#EEEEEE" height="23.1328" style="stroke:#000000;stroke-width:2;" width="110.5034" x="162.8882" y="157.6953"/><text fill="#000000" font-family="sans-serif" font-size="13" font-weight="bold" lengthAdjust="spacing" textLength="91.9775" x="168.8882" y="173.7622">Video listing</text><polygon fill="#181818" points="374.3247,207.9609,384.3247,211.9609,374.3247,215.9609,378.3247,211.9609" style="stroke:#181818;stroke-width:1;"/><line style="stroke:#181818;stroke-width:1;" x1="47.2651" x2="380.3247" y1="211.9609" y2="211.9609"/><text fill="#000000" font-family="sans-serif" font-size="13" lengthAdjust="spacing" textLength="27.2695" x="54.2651" y="206.895">LIST</text><polygon fill="#181818" points="58.2651,237.0938,48.2651,241.0938,58.2651,245.0938,54.2651,241.0938" style="stroke:#181818;stroke-width:1;"/><line style="stroke:#181818;stroke-width:1;stroke-dasharray:2.0,2.0;" x1="52.2651" x2="385.3247" y1="241.0938" y2="241.0938"/><text fill="#000000" font-family="sans-serif" font-size="13" lengthAdjust="spacing" textLength="315.0596" x="64.2651" y="236.0278">200 1,video1,description1;2,video2,description2</text><rect fill="#EEEEEE" height="3" style="stroke:#EEEEEE;stroke-width:1;" width="436.2798" x="0" y="269.6602"/><line style="stroke:#000000;stroke-width:1;" x1="0" x2="436.2798" y1="269.6602" y2="269.6602"/><line style="stroke:#000000;stroke-width:1;" x1="0" x2="436.2798" y1="272.6602" y2="272.6602"/><rect fill="#EEEEEE" height="23.1328" style="stroke:#000000;stroke-width:2;" width="158.606" x="138.8369" y="259.0938"/><text fill="#000000" font-family="sans-serif" font-size="13" font-weight="bold" lengthAdjust="spacing" textLength="140.0801" x="144.8369" y="275.1606">Video downloading</text><polygon fill="#181818" points="374.3247,309.3594,384.3247,313.3594,374.3247,317.3594,378.3247,313.3594" style="stroke:#181818;stroke-width:1;"/><line style="stroke:#181818;stroke-width:1;" x1="47.2651" x2="380.3247" y1="313.3594" y2="313.3594"/><text fill="#000000" font-family="sans-serif" font-size="13" lengthAdjust="spacing" textLength="91.603" x="54.2651" y="308.2935">DOWNLOAD 1</text><polygon fill="#181818" points="58.2651,338.4922,48.2651,342.4922,58.2651,346.4922,54.2651,342.4922" style="stroke:#181818;stroke-width:1;"/><line style="stroke:#181818;stroke-width:1;stroke-dasharray:2.0,2.0;" x1="52.2651" x2="385.3247" y1="342.4922" y2="342.4922"/><text fill="#000000" font-family="sans-serif" font-size="13" lengthAdjust="spacing" textLength="72.7251" x="64.2651" y="337.4263">200 video1</text><path d="M10,357.4922 L86.624,357.4922 L86.624,364.625 L76.624,374.625 L10,374.625 L10,357.4922 " fill="#EEEEEE" style="stroke:#000000;stroke-width:1.5;"/><rect fill="none" height="46.2656" style="stroke:#000000;stroke-width:1.5;" width="416.2798" x="10" y="357.4922"/><text fill="#000000" font-family="sans-serif" font-size="13" font-weight="bold" lengthAdjust="spacing" textLength="31.624" x="25" y="370.5591">loop</text><text fill="#000000" font-family="sans-serif" font-size="11" font-weight="bold" lengthAdjust="spacing" textLength="83.0049" x="101.624" y="369.7026">[Dowloading]</text><polygon fill="#181818" points="58.2651,391.7578,48.2651,395.7578,58.2651,399.7578,54.2651,395.7578" style="stroke:#181818;stroke-width:1;"/><line style="stroke:#181818;stroke-width:1;stroke-dasharray:2.0,2.0;" x1="52.2651" x2="385.3247" y1="395.7578" y2="395.7578"/><text fill="#000000" font-family="sans-serif" font-size="13" lengthAdjust="spacing" textLength="158.4692" x="64.2651" y="390.6919">Base64 encoded chunks</text><polygon fill="#181818" points="58.2651,427.8906,48.2651,431.8906,58.2651,435.8906,54.2651,431.8906" style="stroke:#181818;stroke-width:1;"/><line style="stroke:#181818;stroke-width:1;stroke-dasharray:2.0,2.0;" x1="52.2651" x2="385.3247" y1="431.8906" y2="431.8906"/><text fill="#000000" font-family="sans-serif" font-size="13" lengthAdjust="spacing" textLength="137.8584" x="64.2651" y="426.8247">END_OF_DOWNLOAD</text><rect fill="#EEEEEE" height="3" style="stroke:#EEEEEE;stroke-width:1;" width="436.2798" x="0" y="460.457"/><line style="stroke:#000000;stroke-width:1;" x1="0" x2="436.2798" y1="460.457" y2="460.457"/><line style="stroke:#000000;stroke-width:1;" x1="0" x2="436.2798" y1="463.457" y2="463.457"/><rect fill="#EEEEEE" height="23.1328" style="stroke:#000000;stroke-width:2;" width="122.0371" x="157.1213" y="449.8906"/><text fill="#000000" font-family="sans-serif" font-size="13" font-weight="bold" lengthAdjust="spacing" textLength="103.5112" x="163.1213" y="465.9575">Disconnection</text><polygon fill="#181818" points="374.3247,500.1563,384.3247,504.1563,374.3247,508.1563,378.3247,504.1563" style="stroke:#181818;stroke-width:1;"/><line style="stroke:#181818;stroke-width:1;" x1="47.2651" x2="380.3247" y1="504.1563" y2="504.1563"/><text fill="#000000" font-family="sans-serif" font-size="13" lengthAdjust="spacing" textLength="31.5225" x="54.2651" y="499.0903">QUIT</text><polygon fill="#181818" points="58.2651,529.2891,48.2651,533.2891,58.2651,537.2891,54.2651,533.2891" style="stroke:#181818;stroke-width:1;"/><line style="stroke:#181818;stroke-width:1;stroke-dasharray:2.0,2.0;" x1="52.2651" x2="385.3247" y1="533.2891" y2="533.2891"/><text fill="#000000" font-family="sans-serif" font-size="13" lengthAdjust="spacing" textLength="129.8477" x="64.2651" y="528.2231">200 See you soon :)</text><path d="M21,546.2891 L21,571.2891 L412,571.2891 L412,556.2891 L402,546.2891 L21,546.2891 " fill="#FEFFDD" style="stroke:#181818;stroke-width:0.5;"/><path d="M402,546.2891 L402,556.2891 L412,556.2891 L402,546.2891 " fill="#FEFFDD" style="stroke:#181818;stroke-width:0.5;"/><text fill="#000000" font-family="sans-serif" font-size="13" lengthAdjust="spacing" textLength="150.3442" x="136.9678" y="563.356">TCP Connection Closed</text><!--SRC=[TP5FJuGm4CNl_HHpDM7DGem734Q5DTba0nfmFMvgEqgrT0Wjk_7Rov_To05ww67otlkzpDIySKgecXi7iLPe7AidenoR8pQCHH74P0mAfyW0MiS_jB9brUaXYjZeXDNzsH12dANf9YxWcqepV0zOSQMl1LLirC2gau_648BrUWgmhH1exMUh1_HUIIJeW4wPhtdURfiNIy6-T-m3V4-Y5OsgUuH_5upJO3eD9ZX99wE9oqLaahsdk-mn0Ny9F6AP9geXeTCvZK7tPXnFtEBj3Q0H9562A5lpOnaQEHU_IPD3zdouT1Xw9ygA_ntETdvzsowkAKU4Nsh1KkSEhvWXXq2zSbHvbv0YVfaUAzPaKVu1]--></g></svg>