<svg xmlns="http://www.w3.org/2000/svg" xmlns:xlink="http://www.w3.org/1999/xlink" contentStyleType="text/css" height="723px" preserveAspectRatio="none" style="width:416px;height:723px;background:#FFFFFF;" version="1.1" viewBox="0 0 416 723" width="416px" zoomAndPan="magnify"><defs/><g><rect fill="none" height="46.2656" style="stroke:#000000;stroke-width:1.5;" width="389.1943" x="10" y="357.4922"/><line style="stroke:#181818;stroke-width:0.5;stroke-dasharray:5.0,5.0;" x1="47" x2="47" y1="36.2969" y2="687.8203"/><line style="stroke:#181818;stroke-width:0.5;stroke-dasharray:5.0,5.0;" x1="358.2842" x2="358.2842" y1="36.2969" y2="687.8203"/><rect fill="#E2E2F0" height="30.2969" rx="2.5" ry="2.5" style="stroke:#181818;stroke-width:0.5;" width="54.5303" x="20" y="5"/><text fill="#000000" font-family="sans-serif" font-size="14" lengthAdjust="spacing" textLength="40.5303" x="27" y="24.9951">Client</text><rect fill="#E2E2F0" height="30.2969" rx="2.5" ry="2.5" style="stroke:#181818;stroke-width:0.5;" width="54.5303" x="20" y="686.8203"/><text fill="#000000" font-family="sans-serif" font-size="14" lengthAdjust="spacing" textLength="40.5303" x="27" y="706.8154">Client</text><rect fill="#E2E2F0" height="30.2969" rx="2.5" ry="2.5" style="stroke:#181818;stroke-width:0.5;" width="59.9102" x="329.2842" y="5"/><text fill="#000000" font-family="sans-serif" font-size="14" lengthAdjust="spacing" textLength="45.9102" x="336.2842" y="24.9951">Server</text><rect fill="#E2E2F0" height="30.2969" rx="2.5" ry="2.5" style="stroke:#181818;stroke-width:0.5;" width="59.9102" x="329.2842" y="686.8203"/><text fill="#000000" font-family="sans-serif" font-size="14" lengthAdjust="spacing" textLength="45.9102" x="336.2842" y="706.8154">Server</text><rect fill="#EEEEEE" height="3" style="stroke:#EEEEEE;stroke-width:1;" width="409.1943" x="0" y="66.8633"/><line style="stroke:#000000;stroke-width:1;" x1="0" x2="409.1943" y1="66.8633" y2="66.8633"/><line style="stroke:#000000;stroke-width:1;" x1="0" x2="409.1943" y1="69.8633" y2="69.8633"/><rect fill="#EEEEEE" height="23.1328" style="stroke:#000000;stroke-width:2;" width="209.9966" x="99.5989" y="56.2969"/><text fill="#000000" font-family="sans-serif" font-size="13" font-weight="bold" lengthAdjust="spacing" textLength="191.4707" x="105.5989" y="72.3638">Connection establishment</text><polygon fill="#181818" points="347.2393,106.5625,357.2393,110.5625,347.2393,114.5625,351.2393,110.5625" style="stroke:#181818;stroke-width:1;"/><line style="stroke:#181818;stroke-width:1;" x1="47.2651" x2="353.2393" y1="110.5625" y2="110.5625"/><text fill="#000000" font-family="sans-serif" font-size="13" lengthAdjust="spacing" textLength="201.9189" x="54.2651" y="105.4966">CONNECT bob bob@email.com</text><polygon fill="#181818" points="58.2651,135.6953,48.2651,139.6953,58.2651,143.6953,54.2651,139.6953" style="stroke:#181818;stroke-width:1;"/><line style="stroke:#181818;stroke-width:1;stroke-dasharray:2.0,2.0;" x1="52.2651" x2="358.2393" y1="139.6953" y2="139.6953"/><text fill="#000000" font-family="sans-serif" font-size="13" lengthAdjust="spacing" textLength="173.9131" x="64.2651" y="134.6294">200 Connection successful</text><rect fill="#EEEEEE" height="3" style="stroke:#EEEEEE;stroke-width:1;" width="409.1943" x="0" y="168.2617"/><line style="stroke:#000000;stroke-width:1;" x1="0" x2="409.1943" y1="168.2617" y2="168.2617"/><line style="stroke:#000000;stroke-width:1;" x1="0" x2="409.1943" y1="171.2617" y2="171.2617"/><rect fill="#EEEEEE" height="23.1328" style="stroke:#000000;stroke-width:2;" width="111.3794" x="148.9075" y="157.6953"/><text fill="#000000" font-family="sans-serif" font-size="13" font-weight="bold" lengthAdjust="spacing" textLength="92.8535" x="154.9075" y="173.7622">Initial listing</text><polygon fill="#181818" points="347.2393,207.9609,357.2393,211.9609,347.2393,215.9609,351.2393,211.9609" style="stroke:#181818;stroke-width:1;"/><line style="stroke:#181818;stroke-width:1;" x1="47.2651" x2="353.2393" y1="211.9609" y2="211.9609"/><text fill="#000000" font-family="sans-serif" font-size="13" lengthAdjust="spacing" textLength="27.2695" x="54.2651" y="206.895">LIST</text><polygon fill="#181818" points="58.2651,237.0938,48.2651,241.0938,58.2651,245.0938,54.2651,241.0938" style="stroke:#181818;stroke-width:1;"/><line style="stroke:#181818;stroke-width:1;stroke-dasharray:2.0,2.0;" x1="52.2651" x2="358.2393" y1="241.0938" y2="241.0938"/><text fill="#000000" font-family="sans-serif" font-size="13" lengthAdjust="spacing" textLength="169.8125" x="64.2651" y="236.0278">200 1,video1,description1</text><rect fill="#EEEEEE" height="3" style="stroke:#EEEEEE;stroke-width:1;" width="409.1943" x="0" y="269.6602"/><line style="stroke:#000000;stroke-width:1;" x1="0" x2="409.1943" y1="269.6602" y2="269.6602"/><line style="stroke:#000000;stroke-width:1;" x1="0" x2="409.1943" y1="272.6602" y2="272.6602"/><rect fill="#EEEEEE" height="23.1328" style="stroke:#000000;stroke-width:2;" width="114.6484" x="147.2729" y="259.0938"/><text fill="#000000" font-family="sans-serif" font-size="13" font-weight="bold" lengthAdjust="spacing" textLength="96.1226" x="153.2729" y="275.1606">Video upload</text><polygon fill="#181818" points="347.2393,309.3594,357.2393,313.3594,347.2393,317.3594,351.2393,313.3594" style="stroke:#181818;stroke-width:1;"/><line style="stroke:#181818;stroke-width:1;" x1="47.2651" x2="353.2393" y1="313.3594" y2="313.3594"/><text fill="#000000" font-family="sans-serif" font-size="13" lengthAdjust="spacing" textLength="267.8584" x="54.2651" y="308.2935">UPLOAD dGVzdA== ZGVzY3JpcHRpb24=</text><polygon fill="#181818" points="58.2651,338.4922,48.2651,342.4922,58.2651,346.4922,54.2651,342.4922" style="stroke:#181818;stroke-width:1;"/><line style="stroke:#181818;stroke-width:1;stroke-dasharray:2.0,2.0;" x1="52.2651" x2="358.2393" y1="342.4922" y2="342.4922"/><text fill="#000000" font-family="sans-serif" font-size="13" lengthAdjust="spacing" textLength="178.6357" x="64.2651" y="337.4263">200 Ready to receive video</text><path d="M10,357.4922 L86.624,357.4922 L86.624,364.625 L76.624,374.625 L10,374.625 L10,357.4922 " fill="#EEEEEE" style="stroke:#000000;stroke-width:1.5;"/><rect fill="none" height="46.2656" style="stroke:#000000;stroke-width:1.5;" width="389.1943" x="10" y="357.4922"/><text fill="#000000" font-family="sans-serif" font-size="13" font-weight="bold" lengthAdjust="spacing" textLength="31.624" x="25" y="370.5591">loop</text><text fill="#000000" font-family="sans-serif" font-size="11" font-weight="bold" lengthAdjust="spacing" textLength="111.9658" x="101.624" y="369.7026">[Video Uploading]</text><polygon fill="#181818" points="347.2393,391.7578,357.2393,395.7578,347.2393,399.7578,351.2393,395.7578" style="stroke:#181818;stroke-width:1;"/><line style="stroke:#181818;stroke-width:1;" x1="47.2651" x2="353.2393" y1="395.7578" y2="395.7578"/><text fill="#000000" font-family="sans-serif" font-size="13" lengthAdjust="spacing" textLength="158.4692" x="54.2651" y="390.6919">Base64 encoded chunks</text><polygon fill="#181818" points="347.2393,427.8906,357.2393,431.8906,347.2393,435.8906,351.2393,431.8906" style="stroke:#181818;stroke-width:1;"/><line style="stroke:#181818;stroke-width:1;" x1="47.2651" x2="353.2393" y1="431.8906" y2="431.8906"/><text fill="#000000" font-family="sans-serif" font-size="13" lengthAdjust="spacing" textLength="112.3916" x="54.2651" y="426.8247">END_OF_UPLOAD</text><polygon fill="#181818" points="58.2651,457.0234,48.2651,461.0234,58.2651,465.0234,54.2651,461.0234" style="stroke:#181818;stroke-width:1;"/><line style="stroke:#181818;stroke-width:1;stroke-dasharray:2.0,2.0;" x1="52.2651" x2="358.2393" y1="461.0234" y2="461.0234"/><text fill="#000000" font-family="sans-serif" font-size="13" lengthAdjust="spacing" textLength="213.0273" x="64.2651" y="455.9575">200 Video uploaded successfully</text><rect fill="#EEEEEE" height="3" style="stroke:#EEEEEE;stroke-width:1;" width="409.1943" x="0" y="489.5898"/><line style="stroke:#000000;stroke-width:1;" x1="0" x2="409.1943" y1="489.5898" y2="489.5898"/><line style="stroke:#000000;stroke-width:1;" x1="0" x2="409.1943" y1="492.5898" y2="492.5898"/><rect fill="#EEEEEE" height="23.1328" style="stroke:#000000;stroke-width:2;" width="131.2095" x="138.9924" y="479.0234"/><text fill="#000000" font-family="sans-serif" font-size="13" font-weight="bold" lengthAdjust="spacing" textLength="112.6836" x="144.9924" y="495.0903">Updated listing</text><polygon fill="#181818" points="347.2393,529.2891,357.2393,533.2891,347.2393,537.2891,351.2393,533.2891" style="stroke:#181818;stroke-width:1;"/><line style="stroke:#181818;stroke-width:1;" x1="47.2651" x2="353.2393" y1="533.2891" y2="533.2891"/><text fill="#000000" font-family="sans-serif" font-size="13" lengthAdjust="spacing" textLength="27.2695" x="54.2651" y="528.2231">LIST</text><polygon fill="#181818" points="58.2651,558.4219,48.2651,562.4219,58.2651,566.4219,54.2651,562.4219" style="stroke:#181818;stroke-width:1;"/><line style="stroke:#181818;stroke-width:1;stroke-dasharray:2.0,2.0;" x1="52.2651" x2="358.2393" y1="562.4219" y2="562.4219"/><text fill="#000000" font-family="sans-serif" font-size="13" lengthAdjust="spacing" textLength="287.9741" x="64.2651" y="557.356">200 1,video1,description1;2,test,description</text><rect fill="#EEEEEE" height="3" style="stroke:#EEEEEE;stroke-width:1;" width="409.1943" x="0" y="590.9883"/><line style="stroke:#000000;stroke-width:1;" x1="0" x2="409.1943" y1="590.9883" y2="590.9883"/><line style="stroke:#000000;stroke-width:1;" x1="0" x2="409.1943" y1="593.9883" y2="593.9883"/><rect fill="#EEEEEE" height="23.1328" style="stroke:#000000;stroke-width:2;" width="113.125" x="148.0347" y="580.4219"/><text fill="#000000" font-family="sans-serif" font-size="13" font-weight="bold" lengthAdjust="spacing" textLength="94.5991" x="154.0347" y="596.4888">Déconnexion</text><polygon fill="#181818" points="347.2393,630.6875,357.2393,634.6875,347.2393,638.6875,351.2393,634.6875" style="stroke:#181818;stroke-width:1;"/><line style="stroke:#181818;stroke-width:1;" x1="47.2651" x2="353.2393" y1="634.6875" y2="634.6875"/><text fill="#000000" font-family="sans-serif" font-size="13" lengthAdjust="spacing" textLength="31.5225" x="54.2651" y="629.6216">QUIT</text><path d="M21,647.6875 L21,672.6875 L385,672.6875 L385,657.6875 L375,647.6875 L21,647.6875 " fill="#FEFFDD" style="stroke:#181818;stroke-width:0.5;"/><path d="M375,647.6875 L375,657.6875 L385,657.6875 L375,647.6875 " fill="#FEFFDD" style="stroke:#181818;stroke-width:0.5;"/><text fill="#000000" font-family="sans-serif" font-size="13" lengthAdjust="spacing" textLength="150.3442" x="123.425" y="664.7544">TCP Connection Closed</text><!--SRC=[hPBTJi8m5CVl-nJd0OQ1IRp0p8W35KC0OIFH6zArHsaiRRDsH7mZdyCNizimBd7SsQH9Spx-l_DHGtCdc31KEOYbGEM8QPXMcEyn9oIA8DPA8ND2Aq3hQ2Q5tUvyF4GHgJEXStLC640ydyt6SGAPpifxZJigv1dJEr97GCS7rsa32BlTfhmj64DhNmfPWITAE44bUA0JwhMTDvsiabFIlM0lEEfUmD6oN9WIqgkarwKT2YCrvUswwM8w7uw0twq_-D1dFFl7q_c3OVTBauNzw1HpYPGVm6d8aQ7O8rGb4AcrELBJYkeR8k3FN_8DjNZH1rHCS-J0jeLwimGLRwboF1jjvhURkjXJ9JMRzOA_KvQ7QXYfuTHvn__E-J8CdFylJLj56trzidBbx-N6Mr6FwIGXIZi4NTBgWE37cyIBvf-9fRR8lm40]--></g></svg>