<svg xmlns="http://www.w3.org/2000/svg" xmlns:xlink="http://www.w3.org/1999/xlink" contentStyleType="text/css" height="500px" preserveAspectRatio="none" style="width:738px;height:500px;background:#FFFFFF;" version="1.1" viewBox="0 0 738 500" width="738px" zoomAndPan="magnify"><defs/><g><rect fill="none" height="46.2656" style="stroke:#000000;stroke-width:1.5;" width="334.1548" x="10" y="314.3594"/><line style="stroke:#181818;stroke-width:0.5;stroke-dasharray:5.0,5.0;" x1="53" x2="53" y1="36.2969" y2="465.0234"/><line style="stroke:#181818;stroke-width:0.5;stroke-dasharray:5.0,5.0;" x1="303.2446" x2="303.2446" y1="36.2969" y2="465.0234"/><line style="stroke:#181818;stroke-width:0.5;stroke-dasharray:5.0,5.0;" x1="692.1064" x2="692.1064" y1="36.2969" y2="465.0234"/><rect fill="#E2E2F0" height="30.2969" rx="2.5" ry="2.5" style="stroke:#181818;stroke-width:0.5;" width="67.8877" x="20" y="5"/><text fill="#000000" font-family="sans-serif" font-size="14" lengthAdjust="spacing" textLength="53.8877" x="27" y="24.9951">Client 1</text><rect fill="#E2E2F0" height="30.2969" rx="2.5" ry="2.5" style="stroke:#181818;stroke-width:0.5;" width="67.8877" x="20" y="464.0234"/><text fill="#000000" font-family="sans-serif" font-size="14" lengthAdjust="spacing" textLength="53.8877" x="27" y="484.0186">Client 1</text><rect fill="#E2E2F0" height="30.2969" rx="2.5" ry="2.5" style="stroke:#181818;stroke-width:0.5;" width="59.9102" x="274.2446" y="5"/><text fill="#000000" font-family="sans-serif" font-size="14" lengthAdjust="spacing" textLength="45.9102" x="281.2446" y="24.9951">Server</text><rect fill="#E2E2F0" height="30.2969" rx="2.5" ry="2.5" style="stroke:#181818;stroke-width:0.5;" width="59.9102" x="274.2446" y="464.0234"/><text fill="#000000" font-family="sans-serif" font-size="14" lengthAdjust="spacing" textLength="45.9102" x="281.2446" y="484.0186">Server</text><rect fill="#E2E2F0" height="30.2969" rx="2.5" ry="2.5" style="stroke:#181818;stroke-width:0.5;" width="67.8877" x="659.1064" y="5"/><text fill="#000000" font-family="sans-serif" font-size="14" lengthAdjust="spacing" textLength="53.8877" x="666.1064" y="24.9951">Client 2</text><rect fill="#E2E2F0" height="30.2969" rx="2.5" ry="2.5" style="stroke:#181818;stroke-width:0.5;" width="67.8877" x="659.1064" y="464.0234"/><text fill="#000000" font-family="sans-serif" font-size="14" lengthAdjust="spacing" textLength="53.8877" x="666.1064" y="484.0186">Client 2</text><rect fill="#EEEEEE" height="3" style="stroke:#EEEEEE;stroke-width:1;" width="731.9941" x="0" y="66.8633"/><line style="stroke:#000000;stroke-width:1;" x1="0" x2="731.9941" y1="66.8633" y2="66.8633"/><line style="stroke:#000000;stroke-width:1;" x1="0" x2="731.9941" y1="69.8633" y2="69.8633"/><rect fill="#EEEEEE" height="23.1328" style="stroke:#000000;stroke-width:2;" width="108.6245" x="311.6848" y="56.2969"/><text fill="#000000" font-family="sans-serif" font-size="13" font-weight="bold" lengthAdjust="spacing" textLength="90.0986" x="317.6848" y="72.3638">Connections</text><polygon fill="#181818" points="292.1997,106.5625,302.1997,110.5625,292.1997,114.5625,296.1997,110.5625" style="stroke:#181818;stroke-width:1;"/><line style="stroke:#181818;stroke-width:1;" x1="53.9438" x2="298.1997" y1="110.5625" y2="110.5625"/><text fill="#000000" font-family="sans-serif" font-size="13" lengthAdjust="spacing" textLength="226.2559" x="60.9438" y="105.4966">CONNECT user1 user1@email.com</text><polygon fill="#181818" points="64.9438,135.6953,54.9438,139.6953,64.9438,143.6953,60.9438,139.6953" style="stroke:#181818;stroke-width:1;"/><line style="stroke:#181818;stroke-width:1;stroke-dasharray:2.0,2.0;" x1="58.9438" x2="303.1997" y1="139.6953" y2="139.6953"/><text fill="#000000" font-family="sans-serif" font-size="13" lengthAdjust="spacing" textLength="173.9131" x="70.9438" y="134.6294">200 Connection successful</text><polygon fill="#181818" points="315.1997,164.8281,305.1997,168.8281,315.1997,172.8281,311.1997,168.8281" style="stroke:#181818;stroke-width:1;"/><line style="stroke:#181818;stroke-width:1;" x1="309.1997" x2="692.0503" y1="168.8281" y2="168.8281"/><text fill="#000000" font-family="sans-serif" font-size="13" lengthAdjust="spacing" textLength="226.2559" x="321.1997" y="163.7622">CONNECT user2 user2@email.com</text><polygon fill="#181818" points="681.0503,193.9609,691.0503,197.9609,681.0503,201.9609,685.0503,197.9609" style="stroke:#181818;stroke-width:1;"/><line style="stroke:#181818;stroke-width:1;stroke-dasharray:2.0,2.0;" x1="304.1997" x2="687.0503" y1="197.9609" y2="197.9609"/><text fill="#000000" font-family="sans-serif" font-size="13" lengthAdjust="spacing" textLength="173.9131" x="311.1997" y="192.895">200 Connection successful</text><rect fill="#EEEEEE" height="3" style="stroke:#EEEEEE;stroke-width:1;" width="731.9941" x="0" y="226.5273"/><line style="stroke:#000000;stroke-width:1;" x1="0" x2="731.9941" y1="226.5273" y2="226.5273"/><line style="stroke:#000000;stroke-width:1;" x1="0" x2="731.9941" y1="229.5273" y2="229.5273"/><rect fill="#EEEEEE" height="23.1328" style="stroke:#000000;stroke-width:2;" width="74.7407" x="328.6267" y="215.9609"/><text fill="#000000" font-family="sans-serif" font-size="13" font-weight="bold" lengthAdjust="spacing" textLength="56.2148" x="334.6267" y="232.0278">Conflict</text><polygon fill="#181818" points="292.1997,266.2266,302.1997,270.2266,292.1997,274.2266,296.1997,270.2266" style="stroke:#181818;stroke-width:1;"/><line style="stroke:#181818;stroke-width:1;" x1="53.9438" x2="298.1997" y1="270.2266" y2="270.2266"/><text fill="#000000" font-family="sans-serif" font-size="13" lengthAdjust="spacing" textLength="91.603" x="60.9438" y="265.1606">DOWNLOAD 1</text><polygon fill="#181818" points="64.9438,295.3594,54.9438,299.3594,64.9438,303.3594,60.9438,299.3594" style="stroke:#181818;stroke-width:1;"/><line style="stroke:#181818;stroke-width:1;stroke-dasharray:2.0,2.0;" x1="58.9438" x2="303.1997" y1="299.3594" y2="299.3594"/><text fill="#000000" font-family="sans-serif" font-size="13" lengthAdjust="spacing" textLength="72.7251" x="70.9438" y="294.2935">200 video1</text><path d="M10,314.3594 L86.624,314.3594 L86.624,321.4922 L76.624,331.4922 L10,331.4922 L10,314.3594 " fill="#EEEEEE" style="stroke:#000000;stroke-width:1.5;"/><rect fill="none" height="46.2656" style="stroke:#000000;stroke-width:1.5;" width="334.1548" x="10" y="314.3594"/><text fill="#000000" font-family="sans-serif" font-size="13" font-weight="bold" lengthAdjust="spacing" textLength="31.624" x="25" y="327.4263">loop</text><text fill="#000000" font-family="sans-serif" font-size="11" font-weight="bold" lengthAdjust="spacing" textLength="129.8408" x="101.624" y="326.5698">[Video Downloading]</text><polygon fill="#181818" points="64.9438,348.625,54.9438,352.625,64.9438,356.625,60.9438,352.625" style="stroke:#181818;stroke-width:1;"/><line style="stroke:#181818;stroke-width:1;stroke-dasharray:2.0,2.0;" x1="58.9438" x2="303.1997" y1="352.625" y2="352.625"/><text fill="#000000" font-family="sans-serif" font-size="13" lengthAdjust="spacing" textLength="158.4692" x="70.9438" y="347.5591">Base64 encoded chunks</text><polygon fill="#181818" points="315.1997,384.7578,305.1997,388.7578,315.1997,392.7578,311.1997,388.7578" style="stroke:#181818;stroke-width:1;"/><line style="stroke:#181818;stroke-width:1;" x1="309.1997" x2="692.0503" y1="388.7578" y2="388.7578"/><text fill="#000000" font-family="sans-serif" font-size="13" lengthAdjust="spacing" textLength="62.2388" x="321.1997" y="383.6919">DELETE 1</text><polygon fill="#181818" points="681.0503,413.8906,691.0503,417.8906,681.0503,421.8906,685.0503,417.8906" style="stroke:#181818;stroke-width:1;"/><line style="stroke:#181818;stroke-width:1;stroke-dasharray:2.0,2.0;" x1="304.1997" x2="687.0503" y1="417.8906" y2="417.8906"/><text fill="#000000" font-family="sans-serif" font-size="13" lengthAdjust="spacing" textLength="364.8506" x="311.1997" y="412.8247">403 Video is currently being downloaded by other users</text><polygon fill="#181818" points="64.9438,443.0234,54.9438,447.0234,64.9438,451.0234,60.9438,447.0234" style="stroke:#181818;stroke-width:1;"/><line style="stroke:#181818;stroke-width:1;stroke-dasharray:2.0,2.0;" x1="58.9438" x2="303.1997" y1="447.0234" y2="447.0234"/><text fill="#000000" font-family="sans-serif" font-size="13" lengthAdjust="spacing" textLength="137.8584" x="70.9438" y="441.9575">END_OF_DOWNLOAD</text><!--SRC=[VL5FRy8W5B-_J_7YtQMWsS6aopPQJwOzp6n7W_2SP0WDj2v- -s5Q4zTDEJnUuFt-GID3QvHff6jn8goXjBC9oeY2GNDr-KRXIE7NqMMUz_CS8CzHUET8jSQxY7aEWk7qQG0lKDHLLOerTf42w-ip7QIn3yeVe9_2QG88ja2UPLTi63kbACPTPm44lyNA-tg3bTzbxTtlh57jN-j5_L6jwfS2sNy-ZqQJPs2zR_3zt6FXlvtrKXlt2PZM2FGg8ptEaPpocZIgVUU-8f3Jut15kIhNvKWrvPXdiq79H5HT2Eadx0ctb0HH3-A9UNj2t-uJyFmk4SRcowhOrClD9TqF]--></g></svg>