<svg xmlns="http://www.w3.org/2000/svg" xmlns:xlink="http://www.w3.org/1999/xlink" contentStyleType="text/css" height="1100px" preserveAspectRatio="none" style="width:911px;height:1100px;background:#FFFFFF;" version="1.1" viewBox="0 0 911 1100" width="911px" zoomAndPan="magnify"><defs/><g><rect fill="none" height="46.2656" style="stroke:#000000;stroke-width:1.5;" width="541.1201" x="353.0483" y="372.625"/><rect fill="none" height="46.2656" style="stroke:#000000;stroke-width:1.5;" width="422.9585" x="10" y="491.1563"/><rect fill="none" height="46.2656" style="stroke:#000000;stroke-width:1.5;" width="422.9585" x="10" y="755.3516"/><line style="stroke:#181818;stroke-width:0.5;stroke-dasharray:5.0,5.0;" x1="53" x2="53" y1="36.2969" y2="1065.6797"/><line style="stroke:#181818;stroke-width:0.5;stroke-dasharray:5.0,5.0;" x1="392.0483" x2="392.0483" y1="36.2969" y2="1065.6797"/><line style="stroke:#181818;stroke-width:0.5;stroke-dasharray:5.0,5.0;" x1="849.2808" x2="849.2808" y1="36.2969" y2="1065.6797"/><rect fill="#E2E2F0" height="30.2969" rx="2.5" ry="2.5" style="stroke:#181818;stroke-width:0.5;" width="67.8877" x="20" y="5"/><text fill="#000000" font-family="sans-serif" font-size="14" lengthAdjust="spacing" textLength="53.8877" x="27" y="24.9951">Client 1</text><rect fill="#E2E2F0" height="30.2969" rx="2.5" ry="2.5" style="stroke:#181818;stroke-width:0.5;" width="67.8877" x="20" y="1064.6797"/><text fill="#000000" font-family="sans-serif" font-size="14" lengthAdjust="spacing" textLength="53.8877" x="27" y="1084.6748">Client 1</text><rect fill="#E2E2F0" height="30.2969" rx="2.5" ry="2.5" style="stroke:#181818;stroke-width:0.5;" width="59.9102" x="363.0483" y="5"/><text fill="#000000" font-family="sans-serif" font-size="14" lengthAdjust="spacing" textLength="45.9102" x="370.0483" y="24.9951">Server</text><rect fill="#E2E2F0" height="30.2969" rx="2.5" ry="2.5" style="stroke:#181818;stroke-width:0.5;" width="59.9102" x="363.0483" y="1064.6797"/><text fill="#000000" font-family="sans-serif" font-size="14" lengthAdjust="spacing" textLength="45.9102" x="370.0483" y="1084.6748">Server</text><rect fill="#E2E2F0" height="30.2969" rx="2.5" ry="2.5" style="stroke:#181818;stroke-width:0.5;" width="67.8877" x="816.2808" y="5"/><text fill="#000000" font-family="sans-serif" font-size="14" lengthAdjust="spacing" textLength="53.8877" x="823.2808" y="24.9951">Client 2</text><rect fill="#E2E2F0" height="30.2969" rx="2.5" ry="2.5" style="stroke:#181818;stroke-width:0.5;" width="67.8877" x="816.2808" y="1064.6797"/><text fill="#000000" font-family="sans-serif" font-size="14" lengthAdjust="spacing" textLength="53.8877" x="823.2808" y="1084.6748">Client 2</text><rect fill="#EEEEEE" height="3" style="stroke:#EEEEEE;stroke-width:1;" width="904.1685" x="0" y="66.8633"/><line style="stroke:#000000;stroke-width:1;" x1="0" x2="904.1685" y1="66.8633" y2="66.8633"/><line style="stroke:#000000;stroke-width:1;" x1="0" x2="904.1685" y1="69.8633" y2="69.8633"/><rect fill="#EEEEEE" height="23.1328" style="stroke:#000000;stroke-width:2;" width="155.5972" x="374.2856" y="56.2969"/><text fill="#000000" font-family="sans-serif" font-size="13" font-weight="bold" lengthAdjust="spacing" textLength="137.0713" x="380.2856" y="72.3638">Initial Connections</text><polygon fill="#181818" points="381.0034,106.5625,391.0034,110.5625,381.0034,114.5625,385.0034,110.5625" style="stroke:#181818;stroke-width:1;"/><line style="stroke:#181818;stroke-width:1;" x1="53.9438" x2="387.0034" y1="110.5625" y2="110.5625"/><text fill="#000000" font-family="sans-serif" font-size="13" lengthAdjust="spacing" textLength="226.2559" x="60.9438" y="105.4966">CONNECT user1 user1@email.com</text><polygon fill="#181818" points="64.9438,135.6953,54.9438,139.6953,64.9438,143.6953,60.9438,139.6953" style="stroke:#181818;stroke-width:1;"/><line style="stroke:#181818;stroke-width:1;stroke-dasharray:2.0,2.0;" x1="58.9438" x2="392.0034" y1="139.6953" y2="139.6953"/><text fill="#000000" font-family="sans-serif" font-size="13" lengthAdjust="spacing" textLength="173.9131" x="70.9438" y="134.6294">200 Connection successful</text><polygon fill="#181818" points="404.0034,164.8281,394.0034,168.8281,404.0034,172.8281,400.0034,168.8281" style="stroke:#181818;stroke-width:1;"/><line style="stroke:#181818;stroke-width:1;" x1="398.0034" x2="849.2246" y1="168.8281" y2="168.8281"/><text fill="#000000" font-family="sans-serif" font-size="13" lengthAdjust="spacing" textLength="226.2559" x="410.0034" y="163.7622">CONNECT user2 user2@email.com</text><polygon fill="#181818" points="838.2246,193.9609,848.2246,197.9609,838.2246,201.9609,842.2246,197.9609" style="stroke:#181818;stroke-width:1;"/><line style="stroke:#181818;stroke-width:1;stroke-dasharray:2.0,2.0;" x1="393.0034" x2="844.2246" y1="197.9609" y2="197.9609"/><text fill="#000000" font-family="sans-serif" font-size="13" lengthAdjust="spacing" textLength="173.9131" x="400.0034" y="192.895">200 Connection successful</text><rect fill="#EEEEEE" height="3" style="stroke:#EEEEEE;stroke-width:1;" width="904.1685" x="0" y="226.5273"/><line style="stroke:#000000;stroke-width:1;" x1="0" x2="904.1685" y1="226.5273" y2="226.5273"/><line style="stroke:#000000;stroke-width:1;" x1="0" x2="904.1685" y1="229.5273" y2="229.5273"/><rect fill="#EEEEEE" height="23.1328" style="stroke:#000000;stroke-width:2;" width="159.6724" x="372.248" y="215.9609"/><text fill="#000000" font-family="sans-serif" font-size="13" font-weight="bold" lengthAdjust="spacing" textLength="141.1465" x="378.248" y="232.0278">Parallel Operations</text><polygon fill="#181818" points="381.0034,266.2266,391.0034,270.2266,381.0034,274.2266,385.0034,270.2266" style="stroke:#181818;stroke-width:1;"/><line style="stroke:#181818;stroke-width:1;" x1="53.9438" x2="387.0034" y1="270.2266" y2="270.2266"/><text fill="#000000" font-family="sans-serif" font-size="13" lengthAdjust="spacing" textLength="27.2695" x="60.9438" y="265.1606">LIST</text><polygon fill="#181818" points="64.9438,295.3594,54.9438,299.3594,64.9438,303.3594,60.9438,299.3594" style="stroke:#181818;stroke-width:1;"/><line style="stroke:#181818;stroke-width:1;stroke-dasharray:2.0,2.0;" x1="58.9438" x2="392.0034" y1="299.3594" y2="299.3594"/><text fill="#000000" font-family="sans-serif" font-size="13" lengthAdjust="spacing" textLength="315.0596" x="70.9438" y="294.2935">200 1,video1,description1;2,video2,description2</text><polygon fill="#181818" points="404.0034,324.4922,394.0034,328.4922,404.0034,332.4922,400.0034,328.4922" style="stroke:#181818;stroke-width:1;"/><line style="stroke:#181818;stroke-width:1;" x1="398.0034" x2="849.2246" y1="328.4922" y2="328.4922"/><text fill="#000000" font-family="sans-serif" font-size="13" lengthAdjust="spacing" textLength="60.9438" x="410.0034" y="323.4263">WATCH 1</text><polygon fill="#181818" points="838.2246,353.625,848.2246,357.625,838.2246,361.625,842.2246,357.625" style="stroke:#181818;stroke-width:1;"/><line style="stroke:#181818;stroke-width:1;stroke-dasharray:2.0,2.0;" x1="393.0034" x2="844.2246" y1="357.625" y2="357.625"/><text fill="#000000" font-family="sans-serif" font-size="13" lengthAdjust="spacing" textLength="72.7251" x="400.0034" y="352.5591">200 video1</text><path d="M353.0483,372.625 L429.6724,372.625 L429.6724,379.7578 L419.6724,389.7578 L353.0483,389.7578 L353.0483,372.625 " fill="#EEEEEE" style="stroke:#000000;stroke-width:1.5;"/><rect fill="none" height="46.2656" style="stroke:#000000;stroke-width:1.5;" width="541.1201" x="353.0483" y="372.625"/><text fill="#000000" font-family="sans-serif" font-size="13" font-weight="bold" lengthAdjust="spacing" textLength="31.624" x="368.0483" y="385.6919">loop</text><text fill="#000000" font-family="sans-serif" font-size="11" font-weight="bold" lengthAdjust="spacing" textLength="129.8408" x="444.6724" y="384.8354">[Video Downloading]</text><polygon fill="#181818" points="838.2246,406.8906,848.2246,410.8906,838.2246,414.8906,842.2246,410.8906" style="stroke:#181818;stroke-width:1;"/><line style="stroke:#181818;stroke-width:1;stroke-dasharray:2.0,2.0;" x1="393.0034" x2="844.2246" y1="410.8906" y2="410.8906"/><text fill="#000000" font-family="sans-serif" font-size="13" lengthAdjust="spacing" textLength="158.4692" x="400.0034" y="405.8247">Base64 encoded chunks</text><polygon fill="#181818" points="381.0034,443.0234,391.0034,447.0234,381.0034,451.0234,385.0034,447.0234" style="stroke:#181818;stroke-width:1;"/><line style="stroke:#181818;stroke-width:1;" x1="53.9438" x2="387.0034" y1="447.0234" y2="447.0234"/><text fill="#000000" font-family="sans-serif" font-size="13" lengthAdjust="spacing" textLength="267.8584" x="60.9438" y="441.9575">UPLOAD dGVzdA== ZGVzY3JpcHRpb24=</text><polygon fill="#181818" points="64.9438,472.1563,54.9438,476.1563,64.9438,480.1563,60.9438,476.1563" style="stroke:#181818;stroke-width:1;"/><line style="stroke:#181818;stroke-width:1;stroke-dasharray:2.0,2.0;" x1="58.9438" x2="392.0034" y1="476.1563" y2="476.1563"/><text fill="#000000" font-family="sans-serif" font-size="13" lengthAdjust="spacing" textLength="178.6357" x="70.9438" y="471.0903">200 Ready to receive video</text><path d="M10,491.1563 L86.624,491.1563 L86.624,498.2891 L76.624,508.2891 L10,508.2891 L10,491.1563 " fill="#EEEEEE" style="stroke:#000000;stroke-width:1.5;"/><rect fill="none" height="46.2656" style="stroke:#000000;stroke-width:1.5;" width="422.9585" x="10" y="491.1563"/><text fill="#000000" font-family="sans-serif" font-size="13" font-weight="bold" lengthAdjust="spacing" textLength="31.624" x="25" y="504.2231">loop</text><text fill="#000000" font-family="sans-serif" font-size="11" font-weight="bold" lengthAdjust="spacing" textLength="111.9658" x="101.624" y="503.3667">[Video Uploading]</text><polygon fill="#181818" points="381.0034,525.4219,391.0034,529.4219,381.0034,533.4219,385.0034,529.4219" style="stroke:#181818;stroke-width:1;"/><line style="stroke:#181818;stroke-width:1;" x1="53.9438" x2="387.0034" y1="529.4219" y2="529.4219"/><text fill="#000000" font-family="sans-serif" font-size="13" lengthAdjust="spacing" textLength="158.4692" x="60.9438" y="524.356">Base64 encoded chunks</text><polygon fill="#181818" points="381.0034,561.5547,391.0034,565.5547,381.0034,569.5547,385.0034,565.5547" style="stroke:#181818;stroke-width:1;"/><line style="stroke:#181818;stroke-width:1;" x1="53.9438" x2="387.0034" y1="565.5547" y2="565.5547"/><text fill="#000000" font-family="sans-serif" font-size="13" lengthAdjust="spacing" textLength="112.3916" x="60.9438" y="560.4888">END_OF_UPLOAD</text><polygon fill="#181818" points="64.9438,590.6875,54.9438,594.6875,64.9438,598.6875,60.9438,594.6875" style="stroke:#181818;stroke-width:1;"/><line style="stroke:#181818;stroke-width:1;stroke-dasharray:2.0,2.0;" x1="58.9438" x2="392.0034" y1="594.6875" y2="594.6875"/><text fill="#000000" font-family="sans-serif" font-size="13" lengthAdjust="spacing" textLength="213.0273" x="70.9438" y="589.6216">200 Video uploaded successfully</text><polygon fill="#181818" points="838.2246,619.8203,848.2246,623.8203,838.2246,627.8203,842.2246,623.8203" style="stroke:#181818;stroke-width:1;"/><line style="stroke:#181818;stroke-width:1;stroke-dasharray:2.0,2.0;" x1="393.0034" x2="844.2246" y1="623.8203" y2="623.8203"/><text fill="#000000" font-family="sans-serif" font-size="13" lengthAdjust="spacing" textLength="137.8584" x="400.0034" y="618.7544">END_OF_DOWNLOAD</text><polygon fill="#181818" points="404.0034,648.9531,394.0034,652.9531,404.0034,656.9531,400.0034,652.9531" style="stroke:#181818;stroke-width:1;"/><line style="stroke:#181818;stroke-width:1;" x1="398.0034" x2="849.2246" y1="652.9531" y2="652.9531"/><text fill="#000000" font-family="sans-serif" font-size="13" lengthAdjust="spacing" textLength="27.2695" x="410.0034" y="647.8872">LIST</text><polygon fill="#181818" points="838.2246,678.0859,848.2246,682.0859,838.2246,686.0859,842.2246,682.0859" style="stroke:#181818;stroke-width:1;"/><line style="stroke:#181818;stroke-width:1;stroke-dasharray:2.0,2.0;" x1="393.0034" x2="844.2246" y1="682.0859" y2="682.0859"/><text fill="#000000" font-family="sans-serif" font-size="13" lengthAdjust="spacing" textLength="433.2212" x="400.0034" y="677.02">200 1,video1,description1;2,video2,description2;3,test,description</text><polygon fill="#181818" points="381.0034,707.2188,391.0034,711.2188,381.0034,715.2188,385.0034,711.2188" style="stroke:#181818;stroke-width:1;"/><line style="stroke:#181818;stroke-width:1;" x1="53.9438" x2="387.0034" y1="711.2188" y2="711.2188"/><text fill="#000000" font-family="sans-serif" font-size="13" lengthAdjust="spacing" textLength="91.603" x="60.9438" y="706.1528">DOWNLOAD 3</text><polygon fill="#181818" points="64.9438,736.3516,54.9438,740.3516,64.9438,744.3516,60.9438,740.3516" style="stroke:#181818;stroke-width:1;"/><line style="stroke:#181818;stroke-width:1;stroke-dasharray:2.0,2.0;" x1="58.9438" x2="392.0034" y1="740.3516" y2="740.3516"/><text fill="#000000" font-family="sans-serif" font-size="13" lengthAdjust="spacing" textLength="72.7251" x="70.9438" y="735.2856">200 video3</text><path d="M10,755.3516 L86.624,755.3516 L86.624,762.4844 L76.624,772.4844 L10,772.4844 L10,755.3516 " fill="#EEEEEE" style="stroke:#000000;stroke-width:1.5;"/><rect fill="none" height="46.2656" style="stroke:#000000;stroke-width:1.5;" width="422.9585" x="10" y="755.3516"/><text fill="#000000" font-family="sans-serif" font-size="13" font-weight="bold" lengthAdjust="spacing" textLength="31.624" x="25" y="768.4185">loop</text><text fill="#000000" font-family="sans-serif" font-size="11" font-weight="bold" lengthAdjust="spacing" textLength="129.8408" x="101.624" y="767.562">[Video Downloading]</text><polygon fill="#181818" points="64.9438,789.6172,54.9438,793.6172,64.9438,797.6172,60.9438,793.6172" style="stroke:#181818;stroke-width:1;"/><line style="stroke:#181818;stroke-width:1;stroke-dasharray:2.0,2.0;" x1="58.9438" x2="392.0034" y1="793.6172" y2="793.6172"/><text fill="#000000" font-family="sans-serif" font-size="13" lengthAdjust="spacing" textLength="158.4692" x="70.9438" y="788.5513">Base64 encoded chunks</text><polygon fill="#181818" points="404.0034,825.75,394.0034,829.75,404.0034,833.75,400.0034,829.75" style="stroke:#181818;stroke-width:1;"/><line style="stroke:#181818;stroke-width:1;" x1="398.0034" x2="849.2246" y1="829.75" y2="829.75"/><text fill="#000000" font-family="sans-serif" font-size="13" lengthAdjust="spacing" textLength="62.2388" x="410.0034" y="824.6841">DELETE 2</text><polygon fill="#181818" points="838.2246,854.8828,848.2246,858.8828,838.2246,862.8828,842.2246,858.8828" style="stroke:#181818;stroke-width:1;"/><line style="stroke:#181818;stroke-width:1;stroke-dasharray:2.0,2.0;" x1="393.0034" x2="844.2246" y1="858.8828" y2="858.8828"/><text fill="#000000" font-family="sans-serif" font-size="13" lengthAdjust="spacing" textLength="118.9932" x="400.0034" y="853.8169">200 Video deleted</text><polygon fill="#181818" points="64.9438,884.0156,54.9438,888.0156,64.9438,892.0156,60.9438,888.0156" style="stroke:#181818;stroke-width:1;"/><line style="stroke:#181818;stroke-width:1;stroke-dasharray:2.0,2.0;" x1="58.9438" x2="392.0034" y1="888.0156" y2="888.0156"/><text fill="#000000" font-family="sans-serif" font-size="13" lengthAdjust="spacing" textLength="137.8584" x="70.9438" y="882.9497">END_OF_DOWNLOAD</text><rect fill="#EEEEEE" height="3" style="stroke:#EEEEEE;stroke-width:1;" width="904.1685" x="0" y="916.582"/><line style="stroke:#000000;stroke-width:1;" x1="0" x2="904.1685" y1="916.582" y2="916.582"/><line style="stroke:#000000;stroke-width:1;" x1="0" x2="904.1685" y1="919.582" y2="919.582"/><rect fill="#EEEEEE" height="23.1328" style="stroke:#000000;stroke-width:2;" width="129.7749" x="387.1968" y="906.0156"/><text fill="#000000" font-family="sans-serif" font-size="13" font-weight="bold" lengthAdjust="spacing" textLength="111.249" x="393.1968" y="922.0825">Disconnections</text><polygon fill="#181818" points="381.0034,956.2813,391.0034,960.2813,381.0034,964.2813,385.0034,960.2813" style="stroke:#181818;stroke-width:1;"/><line style="stroke:#181818;stroke-width:1;" x1="53.9438" x2="387.0034" y1="960.2813" y2="960.2813"/><text fill="#000000" font-family="sans-serif" font-size="13" lengthAdjust="spacing" textLength="31.5225" x="60.9438" y="955.2153">QUIT</text><polygon fill="#181818" points="64.9438,985.4141,54.9438,989.4141,64.9438,993.4141,60.9438,989.4141" style="stroke:#181818;stroke-width:1;"/><line style="stroke:#181818;stroke-width:1;stroke-dasharray:2.0,2.0;" x1="58.9438" x2="392.0034" y1="989.4141" y2="989.4141"/><text fill="#000000" font-family="sans-serif" font-size="13" lengthAdjust="spacing" textLength="129.8477" x="70.9438" y="984.3481">200 See you soon :)</text><polygon fill="#181818" points="404.0034,1014.5469,394.0034,1018.5469,404.0034,1022.5469,400.0034,1018.5469" style="stroke:#181818;stroke-width:1;"/><line style="stroke:#181818;stroke-width:1;" x1="398.0034" x2="849.2246" y1="1018.5469" y2="1018.5469"/><text fill="#000000" font-family="sans-serif" font-size="13" lengthAdjust="spacing" textLength="31.5225" x="410.0034" y="1013.481">QUIT</text><polygon fill="#181818" points="838.2246,1043.6797,848.2246,1047.6797,838.2246,1051.6797,842.2246,1047.6797" style="stroke:#181818;stroke-width:1;"/><line style="stroke:#181818;stroke-width:1;stroke-dasharray:2.0,2.0;" x1="393.0034" x2="844.2246" y1="1047.6797" y2="1047.6797"/><text fill="#000000" font-family="sans-serif" font-size="13" lengthAdjust="spacing" textLength="129.8477" x="400.0034" y="1042.6138">200 See you soon :)</text><!--SRC=[bLDHJzim47xthpZnXbGcxA8z56MYEDdeL3MCjg3nWenzRDQCRSL9f_BhPshGqZIjjZmurkNkk- -xB-T5LMkflR0r776ZCRxf4OW0d1BV-ZZ7QeNLLkWzdwLyHaYMmSJgMWi3t5cBijRE1iWomYcSV7e36G4lPxE2Bw09MD5qNk2pqEQ3TCyaPS59BE1q1Epqj8K6eP4IGtXg326SxKDbwTo3oWwYHXNNeXB6e87IOoNsg9XEvei-idImqWeT7IWCijB-jPoUinHbxIZhIhWRB_WLq3wo2PCOvppSljuXTx-jSK9f-uD0V3f5boBWnpD0Avr21V9dOty5WbQHZexbzRGSvw2-tBweSHH_7o_VXr-zlBhnZ-miwzDuWqAjeNPGeKIzmaIlpMxfszosE-wdjfrNpFA7ylD38jX78xLgDgqYq5yNpPfqX_W6bfTtimrSP_GxRhB_TlDyEAWnrErOTzRltM7O9sU3EVnNZ-bXZxVKvSMqM1J0-XIcJWeDrgX8bzVEsE8VakiW3-ttj-MaTpFcYB1s3GGNLsvqt2MvKyPwo_u0]--></g></svg>