<svg xmlns="http://www.w3.org/2000/svg" xmlns:xlink="http://www.w3.org/1999/xlink" contentStyleType="text/css" height="504px" preserveAspectRatio="none" style="width:467px;height:504px;background:#FFFFFF;" version="1.1" viewBox="0 0 467 504" width="467px" zoomAndPan="magnify"><defs/><g><line style="stroke:#181818;stroke-width:0.5;stroke-dasharray:5.0,5.0;" x1="32" x2="32" y1="36.2969" y2="469.0234"/><line style="stroke:#181818;stroke-width:0.5;stroke-dasharray:5.0,5.0;" x1="424.5469" x2="424.5469" y1="36.2969" y2="469.0234"/><rect fill="#E2E2F0" height="30.2969" rx="2.5" ry="2.5" style="stroke:#181818;stroke-width:0.5;" width="54.5303" x="5" y="5"/><text fill="#000000" font-family="sans-serif" font-size="14" lengthAdjust="spacing" textLength="40.5303" x="12" y="24.9951">Client</text><rect fill="#E2E2F0" height="30.2969" rx="2.5" ry="2.5" style="stroke:#181818;stroke-width:0.5;" width="54.5303" x="5" y="468.0234"/><text fill="#000000" font-family="sans-serif" font-size="14" lengthAdjust="spacing" textLength="40.5303" x="12" y="488.0186">Client</text><rect fill="#E2E2F0" height="30.2969" rx="2.5" ry="2.5" style="stroke:#181818;stroke-width:0.5;" width="59.9102" x="395.5469" y="5"/><text fill="#000000" font-family="sans-serif" font-size="14" lengthAdjust="spacing" textLength="45.9102" x="402.5469" y="24.9951">Server</text><rect fill="#E2E2F0" height="30.2969" rx="2.5" ry="2.5" style="stroke:#181818;stroke-width:0.5;" width="59.9102" x="395.5469" y="468.0234"/><text fill="#000000" font-family="sans-serif" font-size="14" lengthAdjust="spacing" textLength="45.9102" x="402.5469" y="488.0186">Server</text><rect fill="#EEEEEE" height="3" style="stroke:#EEEEEE;stroke-width:1;" width="460.457" x="0" y="66.8633"/><line style="stroke:#000000;stroke-width:1;" x1="0" x2="460.457" y1="66.8633" y2="66.8633"/><line style="stroke:#000000;stroke-width:1;" x1="0" x2="460.457" y1="69.8633" y2="69.8633"/><rect fill="#EEEEEE" height="23.1328" style="stroke:#000000;stroke-width:2;" width="188.6685" x="135.8943" y="56.2969"/><text fill="#000000" font-family="sans-serif" font-size="13" font-weight="bold" lengthAdjust="spacing" textLength="170.1426" x="141.8943" y="72.3638">Unauthorized attempts</text><polygon fill="#181818" points="413.502,106.5625,423.502,110.5625,413.502,114.5625,417.502,110.5625" style="stroke:#181818;stroke-width:1;"/><line style="stroke:#181818;stroke-width:1;" x1="32.2651" x2="419.502" y1="110.5625" y2="110.5625"/><text fill="#000000" font-family="sans-serif" font-size="13" lengthAdjust="spacing" textLength="27.2695" x="39.2651" y="105.4966">LIST</text><polygon fill="#181818" points="43.2651,135.6953,33.2651,139.6953,43.2651,143.6953,39.2651,139.6953" style="stroke:#181818;stroke-width:1;"/><line style="stroke:#181818;stroke-width:1;stroke-dasharray:2.0,2.0;" x1="37.2651" x2="424.502" y1="139.6953" y2="139.6953"/><text fill="#000000" font-family="sans-serif" font-size="13" lengthAdjust="spacing" textLength="369.2368" x="49.2651" y="134.6294">401 You have to be connected to execute this command</text><polygon fill="#181818" points="413.502,164.8281,423.502,168.8281,413.502,172.8281,417.502,168.8281" style="stroke:#181818;stroke-width:1;"/><line style="stroke:#181818;stroke-width:1;" x1="32.2651" x2="419.502" y1="168.8281" y2="168.8281"/><text fill="#000000" font-family="sans-serif" font-size="13" lengthAdjust="spacing" textLength="91.603" x="39.2651" y="163.7622">DOWNLOAD 1</text><polygon fill="#181818" points="43.2651,193.9609,33.2651,197.9609,43.2651,201.9609,39.2651,197.9609" style="stroke:#181818;stroke-width:1;"/><line style="stroke:#181818;stroke-width:1;stroke-dasharray:2.0,2.0;" x1="37.2651" x2="424.502" y1="197.9609" y2="197.9609"/><text fill="#000000" font-family="sans-serif" font-size="13" lengthAdjust="spacing" textLength="369.2368" x="49.2651" y="192.895">401 You have to be connected to execute this command</text><polygon fill="#181818" points="413.502,223.0938,423.502,227.0938,413.502,231.0938,417.502,227.0938" style="stroke:#181818;stroke-width:1;"/><line style="stroke:#181818;stroke-width:1;" x1="32.2651" x2="419.502" y1="227.0938" y2="227.0938"/><text fill="#000000" font-family="sans-serif" font-size="13" lengthAdjust="spacing" textLength="62.2388" x="39.2651" y="222.0278">DELETE 1</text><polygon fill="#181818" points="43.2651,252.2266,33.2651,256.2266,43.2651,260.2266,39.2651,256.2266" style="stroke:#181818;stroke-width:1;"/><line style="stroke:#181818;stroke-width:1;stroke-dasharray:2.0,2.0;" x1="37.2651" x2="424.502" y1="256.2266" y2="256.2266"/><text fill="#000000" font-family="sans-serif" font-size="13" lengthAdjust="spacing" textLength="369.2368" x="49.2651" y="251.1606">401 You have to be connected to execute this command</text><polygon fill="#181818" points="413.502,281.3594,423.502,285.3594,413.502,289.3594,417.502,285.3594" style="stroke:#181818;stroke-width:1;"/><line style="stroke:#181818;stroke-width:1;stroke-dasharray:2.0,2.0;" x1="32.2651" x2="419.502" y1="285.3594" y2="285.3594"/><text fill="#000000" font-family="sans-serif" font-size="13" lengthAdjust="spacing" textLength="267.8584" x="39.2651" y="280.2935">UPLOAD dGVzdA== ZGVzY3JpcHRpb24=</text><polygon fill="#181818" points="43.2651,310.4922,33.2651,314.4922,43.2651,318.4922,39.2651,314.4922" style="stroke:#181818;stroke-width:1;"/><line style="stroke:#181818;stroke-width:1;stroke-dasharray:2.0,2.0;" x1="37.2651" x2="424.502" y1="314.4922" y2="314.4922"/><text fill="#000000" font-family="sans-serif" font-size="13" lengthAdjust="spacing" textLength="369.2368" x="49.2651" y="309.4263">401 You have to be connected to execute this command</text><rect fill="#EEEEEE" height="3" style="stroke:#EEEEEE;stroke-width:1;" width="460.457" x="0" y="343.0586"/><line style="stroke:#000000;stroke-width:1;" x1="0" x2="460.457" y1="343.0586" y2="343.0586"/><line style="stroke:#000000;stroke-width:1;" x1="0" x2="460.457" y1="346.0586" y2="346.0586"/><rect fill="#EEEEEE" height="23.1328" style="stroke:#000000;stroke-width:2;" width="122.0371" x="169.21" y="332.4922"/><text fill="#000000" font-family="sans-serif" font-size="13" font-weight="bold" lengthAdjust="spacing" textLength="103.5112" x="175.21" y="348.5591">Disconnection</text><polygon fill="#181818" points="413.502,382.7578,423.502,386.7578,413.502,390.7578,417.502,386.7578" style="stroke:#181818;stroke-width:1;"/><line style="stroke:#181818;stroke-width:1;" x1="32.2651" x2="419.502" y1="386.7578" y2="386.7578"/><text fill="#000000" font-family="sans-serif" font-size="13" lengthAdjust="spacing" textLength="31.5225" x="39.2651" y="381.6919">QUIT</text><polygon fill="#181818" points="43.2651,411.8906,33.2651,415.8906,43.2651,419.8906,39.2651,415.8906" style="stroke:#181818;stroke-width:1;"/><line style="stroke:#181818;stroke-width:1;stroke-dasharray:2.0,2.0;" x1="37.2651" x2="424.502" y1="415.8906" y2="415.8906"/><text fill="#000000" font-family="sans-serif" font-size="13" lengthAdjust="spacing" textLength="129.8477" x="49.2651" y="410.8247">200 See you soon :)</text><path d="M6,428.8906 L6,453.8906 L451,453.8906 L451,438.8906 L441,428.8906 L6,428.8906 " fill="#FEFFDD" style="stroke:#181818;stroke-width:0.5;"/><path d="M441,428.8906 L441,438.8906 L451,438.8906 L441,428.8906 " fill="#FEFFDD" style="stroke:#181818;stroke-width:0.5;"/><text fill="#000000" font-family="sans-serif" font-size="13" lengthAdjust="spacing" textLength="150.3442" x="149.0564" y="445.9575">TCP Connection Closed</text><!--SRC=[jP71QiCm38RlVWfT1okaNKy13qeIjewmTckoqTrSMn13OvjOALkVVjhIiHvoR6-MzUd_i1LKHrRRe1n1jhVeI8Ipgmrs1-o4a19gftfgV6UFQ40HOHieWfHY68F9_ObEeLnkAZ4KCE7xWKXXdanXwtjer061FEmGj7SEDN4ar_Y9kYTkDJPofssLCs8aFr-zFvUhHGxJgrgAigYAQpZE9FNwzo7cuUre5lpB7tpOtZq5_VWQThEvl9oSmtCRJw3rRdnrB_LoT7Mp9646uOkzqVDqUYESPud_8GVgzY-aojQG_OkolOzelW40]--></g></svg>